<svg width="68" height="60" viewBox="0 0 68 60" fill="none" xmlns="http://www.w3.org/2000/svg">
<rect x="0.447144" width="67.5349" height="60" rx="30" fill="#91E3FF"/>
<path fill-rule="evenodd" clip-rule="evenodd" d="M21.2248 26.4863C18.214 33.5497 22.2283 41.5045 30.257 44.1104C38.2856 46.7163 47.1634 43.1503 50.0969 36.087C53.0304 29.0236 49.0161 21.0688 41.0647 18.4629C39.3663 17.8457 37.5136 17.5714 35.6608 17.5714C34.948 17.5714 34.1961 17.6406 33.4607 17.7544C33.1608 17.8008 33.4607 30 33.4607 30L21.2248 26.4863Z" fill="white"/>
<path d="M35.6608 16.5931C37.7239 16.5931 39.7027 16.911 41.4457 17.5451C49.9449 20.3305 54.2825 28.8348 51.1299 36.4256C47.9893 43.9876 38.4858 47.8229 29.879 45.0293C21.3843 42.2721 17.0452 33.9038 20.1001 26.368L20.195 26.1399L22.2545 26.8328C19.4504 33.4112 23.2097 40.7816 30.6347 43.1916C38.1082 45.6173 46.3457 42.293 49.0638 35.7484C51.7976 29.166 48.0355 21.7901 40.6478 19.3683C39.145 18.8222 37.4484 18.5497 35.6608 18.5497C35.147 18.5497 34.5872 18.5902 34.003 18.6674L33.6496 18.7182L33.2717 16.7907C34.1022 16.6621 34.9097 16.5931 35.6608 16.5931Z" fill="#3B3A40"/>
<path fill-rule="evenodd" clip-rule="evenodd" d="M22.6023 17.3572C25.7357 15.1998 29.5709 14.0217 33.4805 14.0217C34.0886 14.0217 34.5816 14.4597 34.5816 15V30C34.5816 30.645 33.8912 31.1135 33.1908 30.9438L17.0411 27.0307C16.4573 26.8893 16.1114 26.3557 16.2665 25.8361C17.2751 22.4587 19.5252 19.4601 22.6023 17.3572ZM32.3794 28.7185V16.0141L32.1174 16.0329C29.1763 16.2689 26.3336 17.2634 23.9482 18.9058C21.6119 20.5025 19.8181 22.6907 18.8059 25.1726L18.7131 25.4074L32.3794 28.7185Z" fill="#3B3A40"/>
</svg>
