<svg width="69" height="60" viewBox="0 0 69 60" fill="none" xmlns="http://www.w3.org/2000/svg">
<rect x="0.723572" width="67.5349" height="60" rx="30" fill="#FDB0DD"/>
<path fill-rule="evenodd" clip-rule="evenodd" d="M21.5013 26.4863C18.4905 33.5497 22.5048 41.5045 30.5334 44.1104C38.5621 46.7163 47.4398 43.1503 50.3734 36.087C53.3069 29.0236 49.2926 21.0688 41.3412 18.4629C39.6428 17.8457 37.7901 17.5714 35.9373 17.5714C35.2244 17.5714 34.4726 17.6406 33.7372 17.7544C33.4373 17.8008 33.7372 30 33.7372 30L21.5013 26.4863Z" fill="white"/>
<path d="M35.9373 16.5931C38.0004 16.5931 39.9792 16.911 41.7222 17.5451C50.2214 20.3305 54.559 28.8348 51.4063 36.4256C48.2657 43.9876 38.7623 47.8229 30.1555 45.0293C21.6608 42.2721 17.3217 33.9038 20.3766 26.368L20.4715 26.1399L22.531 26.8328C19.7269 33.4112 23.4861 40.7816 30.9112 43.1916C38.3847 45.6173 46.6222 42.293 49.3403 35.7484C52.074 29.166 48.312 21.7901 40.9243 19.3683C39.4214 18.8222 37.7249 18.5497 35.9373 18.5497C35.4234 18.5497 34.8637 18.5902 34.2794 18.6674L33.9261 18.7182L33.5481 16.7907C34.3787 16.6621 35.1862 16.5931 35.9373 16.5931Z" fill="#3B3A40"/>
<path fill-rule="evenodd" clip-rule="evenodd" d="M22.8788 17.3572C26.0121 15.1998 29.8473 14.0217 33.7569 14.0217C34.3651 14.0217 34.8581 14.4597 34.8581 15V30C34.8581 30.645 34.1677 31.1135 33.4672 30.9438L17.3176 27.0307C16.7337 26.8893 16.3878 26.3557 16.543 25.8361C17.5516 22.4587 19.8017 19.4601 22.8788 17.3572ZM32.6558 28.7185V16.0141L32.3938 16.0329C29.4527 16.2689 26.6101 17.2634 24.2246 18.9058C21.8883 20.5025 20.0945 22.6907 19.0824 25.1726L18.9895 25.4074L32.6558 28.7185Z" fill="#3B3A40"/>
</svg>
