<svg width="558" height="403" viewBox="0 0 558 403" fill="none" xmlns="http://www.w3.org/2000/svg">
<g filter="url(#filter0_d)">
<path d="M476.718 322.021H54.4471V323.132H476.718V322.021Z" fill="#0F0A46"/>
<path fill-rule="evenodd" clip-rule="evenodd" d="M449.379 321.208C449.374 321.234 449.374 321.259 449.374 321.284C449.374 322.442 452.905 323.379 457.256 323.379C461.607 323.379 465.138 322.442 465.138 321.284C465.138 321.259 465.138 321.239 465.133 321.213C465.974 318.474 471.342 300.847 471.076 300.797H443.653L449.379 321.208Z" fill="#0F0A46"/>
<path fill-rule="evenodd" clip-rule="evenodd" d="M457.361 299.356C449.762 299.356 443.587 300.106 443.587 301.038C443.587 301.969 449.757 302.72 457.361 302.72C464.966 302.72 471.135 301.969 471.135 301.038C471.14 300.106 464.966 299.356 457.361 299.356Z" fill="#0879F9"/>
<path fill-rule="evenodd" clip-rule="evenodd" d="M459.275 297.281C459.507 295.509 465.454 278.768 465.777 266.832C465.943 260.532 463.863 256.634 461.073 255.138C458.288 253.642 451.328 254.564 449.051 257.853C443.421 265.996 454.198 290.936 454.954 293.484C455.478 295.242 456.153 297.553 456.681 299.306C456.938 300.157 456.359 302.202 458.666 301.884C459.698 301.743 459.134 298.374 459.275 297.281Z" fill="#0E8A80"/>
<path fill-rule="evenodd" clip-rule="evenodd" d="M468.38 277.988C471.563 275.243 475.98 274.639 478.196 275.913C478.886 276.311 484.839 279.916 475.492 288.337C473.628 290.014 459.673 301.487 459.512 301.451C458.791 301.29 458.046 301.733 457.87 301.179C457.311 299.407 458.298 294.97 458.993 293.288C460.398 289.868 463.727 282.001 468.38 277.988Z" fill="#077168"/>
<path fill-rule="evenodd" clip-rule="evenodd" d="M457.895 301.668C458.968 300.399 457.503 296.606 457.12 295.357C451.55 277.514 441.009 275.439 436.97 276.507C434.427 277.177 431.551 280.672 437.599 287.41C441.069 291.268 452.114 300.575 454.743 301.245C456.097 301.592 457.895 301.668 457.895 301.668Z" fill="#2CA197"/>
<path fill-rule="evenodd" clip-rule="evenodd" d="M476.148 280.61C476.159 280.605 476.165 280.601 476.167 280.6L476.168 280.6C476.161 280.603 476.155 280.607 476.148 280.61ZM475.573 279.798C475.605 279.767 475.641 279.74 475.682 279.717L475.683 279.717C475.689 279.713 475.726 279.693 475.774 279.678C475.81 279.668 475.925 279.654 476.003 279.66C476.164 279.714 476.396 279.976 476.43 280.158C476.422 280.248 476.381 280.374 476.362 280.411C476.35 280.431 476.328 280.461 476.32 280.473C476.304 280.493 476.289 280.507 476.285 280.512C476.267 280.53 476.25 280.545 476.245 280.549L476.245 280.549C476.23 280.562 476.211 280.578 476.19 280.595C476.146 280.631 476.08 280.684 475.996 280.752C475.827 280.887 475.579 281.084 475.274 281.326C475.038 281.514 474.769 281.728 474.475 281.961C474.01 282.33 473.485 282.746 472.941 283.179C471.162 284.593 469.193 286.167 468.44 286.807L468.44 286.807C464.101 290.493 461.139 294.666 459.173 301.204C459.093 301.47 458.812 301.621 458.546 301.541C458.28 301.461 458.129 301.18 458.209 300.914C460.232 294.186 463.304 289.848 467.788 286.04C468.556 285.386 470.542 283.799 472.314 282.391C472.859 281.958 473.384 281.54 473.85 281.171C474.143 280.938 474.413 280.724 474.648 280.538C474.952 280.296 475.199 280.099 475.366 279.966C475.45 279.898 475.512 279.848 475.552 279.816C475.56 279.808 475.567 279.803 475.573 279.798Z" fill="#C4D4FD"/>
<path fill-rule="evenodd" clip-rule="evenodd" d="M456.043 260.253C456.104 260.196 456.29 260.105 456.415 260.089C456.693 260.089 456.918 260.314 456.918 260.592C456.918 260.613 456.917 260.633 456.915 260.653C456.915 260.661 456.914 260.672 456.914 260.686C456.913 260.735 456.911 260.811 456.91 260.913C456.908 261.117 456.907 261.417 456.907 261.799C456.906 262.563 456.911 263.654 456.923 264.955C456.949 267.559 457.006 271.005 457.125 274.379L457.125 274.38C457.298 279.47 457.519 284.13 457.712 288.219C457.961 293.469 458.165 297.777 458.167 300.842C458.168 301.12 457.942 301.345 457.664 301.346C457.386 301.346 457.16 301.121 457.16 300.842C457.157 297.793 456.955 293.529 456.708 288.308C456.514 284.221 456.293 279.548 456.118 274.414C455.999 271.029 455.941 267.574 455.916 264.965C455.904 263.66 455.899 262.567 455.9 261.799C455.9 261.415 455.901 261.111 455.903 260.903C455.904 260.8 455.905 260.718 455.907 260.66C455.908 260.633 455.908 260.606 455.91 260.585C455.91 260.576 455.911 260.56 455.913 260.541L455.913 260.541C455.914 260.535 455.917 260.511 455.923 260.482L455.923 260.482C455.926 260.471 455.935 260.431 455.956 260.384C455.969 260.357 456.012 260.291 456.043 260.253Z" fill="#C4D4FD"/>
<path fill-rule="evenodd" clip-rule="evenodd" d="M438.41 280.768C438.416 280.49 438.645 280.269 438.923 280.274C439.033 280.276 439.113 280.313 439.134 280.323L439.135 280.323C439.167 280.339 439.193 280.354 439.209 280.365C439.241 280.385 439.269 280.407 439.291 280.425C439.335 280.461 439.388 280.508 439.444 280.56C439.558 280.665 439.714 280.816 439.902 281.004C440.28 281.38 440.806 281.919 441.437 282.574C442.699 283.883 444.388 285.661 446.16 287.543C449.706 291.304 453.596 295.484 455.106 297.149L455.13 297.176C456.012 298.147 456.958 299.188 457.416 300.562C457.504 300.826 457.362 301.111 457.098 301.199C456.834 301.287 456.549 301.144 456.461 300.88C456.077 299.728 455.274 298.832 454.36 297.826L454.359 297.826C452.857 296.168 448.972 291.995 445.427 288.233C443.655 286.353 441.97 284.578 440.712 283.273C440.083 282.62 439.562 282.087 439.191 281.717C439.005 281.532 438.861 281.392 438.761 281.299C438.719 281.261 438.689 281.235 438.669 281.218C438.512 281.13 438.407 280.961 438.41 280.768Z" fill="#C4D4FD"/>
<path fill-rule="evenodd" clip-rule="evenodd" d="M388.417 264.676C388.88 264.684 390.925 264.404 391.227 264.787C391.543 265.162 390.793 266.309 390.646 266.655C389.954 268.361 376.914 312.681 373.575 321.823C373.259 322.683 370.486 322.426 370.582 321.521C371.575 311.754 379.363 263.264 379.547 263.242C379.547 263.242 385.747 264.618 388.417 264.676Z" fill="#0879F9"/>
<path fill-rule="evenodd" clip-rule="evenodd" d="M413.644 265.317C413.18 265.324 411.136 265.045 410.834 265.427C410.518 265.803 411.268 266.95 411.415 267.296C412.107 269.002 425.146 313.321 428.485 322.463C428.802 323.324 431.574 323.066 431.479 322.162C430.486 312.395 422.697 263.905 422.513 263.883C422.513 263.883 416.313 265.258 413.644 265.317Z" fill="#0879F9"/>
<path fill-rule="evenodd" clip-rule="evenodd" d="M451.535 170.728C445.188 167.139 430.28 167.889 422.572 167.889C406.348 167.889 403.575 184.694 403.575 200.705C403.575 200.713 403.575 200.72 403.575 200.728C403.575 201.198 403.59 201.662 403.612 202.125C403.619 202.279 403.634 202.434 403.641 202.581C403.663 202.905 403.685 203.228 403.722 203.552C403.737 203.714 403.752 203.883 403.774 204.045C403.818 204.398 403.862 204.751 403.921 205.104C403.936 205.214 403.95 205.324 403.972 205.435C404.046 205.868 404.127 206.302 404.222 206.736C404.259 206.906 404.303 207.075 404.34 207.244C404.406 207.523 404.472 207.795 404.546 208.075C404.597 208.259 404.649 208.45 404.7 208.634C404.781 208.906 404.862 209.171 404.943 209.436C404.995 209.605 405.046 209.774 405.105 209.943C405.237 210.34 405.384 210.723 405.532 211.112C405.605 211.296 405.679 211.48 405.76 211.657C405.855 211.885 405.951 212.113 406.054 212.341C406.098 212.436 406.135 212.532 406.179 212.627C407.789 216.143 358.976 208.045 355.909 231.941C354.372 243.9 357.402 264.603 370.266 266.442C384.078 268.42 426.853 270.421 437.775 259.786C441.599 256.064 443.901 249.776 445.225 242.363C447.343 236.273 459.692 200.455 460.706 189.409C461.317 182.51 457.566 174.14 451.535 170.728Z" fill="#FFB1DF"/>
<path fill-rule="evenodd" clip-rule="evenodd" d="M372.016 257.263C381.415 262.808 412.357 261.425 424.198 254.571C433.266 249.32 428.589 235.125 421.8 225.865C417.807 220.401 410.106 218.79 403.48 217.349C386.071 217.349 372.891 218.798 367.611 225.865C362.33 232.933 362.632 251.71 372.016 257.263Z" fill="#D57FBC"/>
<g filter="url(#filter1_d)">
<path fill-rule="evenodd" clip-rule="evenodd" d="M417.307 205.986C417.263 205.846 413.226 208.56 405.297 209.266C403.098 209.464 400.884 211.082 398.119 210.781C390.249 209.943 351.24 208.067 346.474 208.538C336.17 208.538 307.678 208.714 307.215 222.181C306.273 251.144 316.533 295.397 316.533 295.397C316.533 295.397 321.262 295.22 322.814 295.235C325.33 295.257 328.293 295.095 328.293 295.095C328.293 295.095 328.551 280.018 328.838 265.478C335.28 281.644 342.267 299.162 342.356 300.979C342.591 305.377 342.981 312.298 339.796 314.519C338.833 315.188 339.701 315.681 339.046 316.711C338.678 317.292 337.274 318.255 337.678 318.498C339.046 319.329 340.671 317.865 342.194 317.542C344.672 317.02 345.04 311.173 347.195 310.025C350.299 308.378 349.196 308.312 349.88 303.752C350.181 301.737 355.506 306.024 353.836 303.796C352.785 302.391 349.446 295.301 349.188 294.161C347.931 288.3 347.967 268.383 345.32 257.572C343.79 250.798 341.275 242.193 339.531 239.111C342.701 240.112 370.487 245.186 370.487 245.186C382.181 247.363 394.751 249.511 400.826 248.812C434.473 244.907 419.521 213.223 417.307 205.986Z" fill="#0F0A46"/>
<path fill-rule="evenodd" clip-rule="evenodd" d="M402.568 111.089C402.597 111.06 402.644 111.06 402.672 111.089L402.68 111.096C402.708 111.125 402.708 111.172 402.679 111.2C402.651 111.229 402.604 111.229 402.575 111.2L402.568 111.193C402.539 111.164 402.54 111.118 402.568 111.089Z" fill="#0F0A46"/>
<path fill-rule="evenodd" clip-rule="evenodd" d="M401.558 117.031C401.632 116.961 401.748 116.963 401.818 117.037C401.846 117.066 401.873 117.11 401.894 117.144C401.918 117.186 401.947 117.239 401.98 117.3C402.046 117.425 402.13 117.591 402.226 117.783C402.417 118.169 402.655 118.665 402.886 119.153C403.117 119.641 403.343 120.122 403.508 120.477C403.591 120.655 403.659 120.802 403.705 120.903C403.728 120.953 403.746 120.992 403.758 121.018L403.771 121.048C403.772 121.051 403.775 121.056 403.777 121.061C403.777 121.063 403.779 121.067 403.78 121.072C403.781 121.074 403.783 121.082 403.784 121.086C403.786 121.095 403.789 121.131 403.787 121.156C403.743 121.25 403.572 121.309 403.496 121.276C403.481 121.263 403.461 121.243 403.456 121.236C403.45 121.228 403.446 121.22 403.446 121.219C403.44 121.21 403.436 121.201 403.433 121.192L403.423 121.17C403.412 121.145 403.394 121.107 403.371 121.056C403.325 120.956 403.257 120.81 403.175 120.633C403.009 120.277 402.785 119.797 402.554 119.31C402.323 118.823 402.086 118.329 401.896 117.946C401.801 117.755 401.719 117.593 401.655 117.473C401.624 117.413 401.597 117.366 401.577 117.331C401.558 117.3 401.55 117.289 401.55 117.288C401.55 117.288 401.551 117.289 401.553 117.291C401.482 117.218 401.485 117.101 401.558 117.031ZM403.765 121.037C403.764 121.036 403.764 121.035 403.763 121.034C403.764 121.035 403.765 121.036 403.765 121.037Z" fill="#FFB1DF"/>
<path fill-rule="evenodd" clip-rule="evenodd" d="M381.791 166.189C382.828 166.447 385.38 166.859 388.491 169.881C390.595 171.919 389.455 174.235 389.455 174.235C389.455 174.235 386.748 178.258 385.358 179.773C377.57 188.217 362.956 189.974 359.823 188.798C347.916 184.326 348.342 188.812 346.827 187.555C344.702 185.797 351.541 180.443 353.351 179.582C355.285 178.663 361.176 183.657 363.287 183.826C364.949 183.958 370.517 180.428 373.9 176.817C378.195 172.257 380.276 165.807 381.791 166.189Z" fill="#FFB1DF"/>
<path fill-rule="evenodd" clip-rule="evenodd" d="M346.423 186.614C346.592 185.783 348.107 185.033 348.813 184.768C349.335 184.569 350.394 184.158 350.953 184.113C351.924 184.033 353.88 184.386 354.829 184.643C355.91 184.937 357.955 185.886 358.97 186.349C360.272 186.945 364.14 189.078 364.14 189.078C364.14 189.078 362.427 189.203 361.897 189.1C361.235 188.968 359.889 188.916 359.227 188.762C358.418 188.578 356.889 187.931 356.094 187.703C355.44 187.511 354.101 187.217 353.424 187.085C352.939 186.989 351.968 186.688 351.483 186.746C350.328 186.894 347.967 188.335 346.96 187.835C346.673 187.673 346.357 186.938 346.423 186.614Z" fill="#D57FBC"/>
<path fill-rule="evenodd" clip-rule="evenodd" d="M395.618 140.713L395.839 142.853L395.368 148.288L394.375 157.555L397.56 166.55L401.259 155.621L401.576 147.06L401.451 139.933L395.618 140.713Z" fill="#FFB1DF"/>
<path fill-rule="evenodd" clip-rule="evenodd" d="M369.642 180.068L373.025 188.548L378.46 186.041L381.512 172.552L378.644 169.507L374.121 174.479L369.642 180.068Z" fill="#C4D4FD"/>
<path fill-rule="evenodd" clip-rule="evenodd" d="M301.243 322.381C305.913 323.168 323.704 323.08 328.801 322.749C330.059 322.668 331.883 321.646 331.809 320.381C331.677 317.991 327.992 308.415 327.992 308.415L318.284 308.466C318.284 308.466 303.883 315.674 300.809 318.057C299.654 318.947 299.831 322.146 301.243 322.381Z" fill="#0F0A46"/>
<path fill-rule="evenodd" clip-rule="evenodd" d="M340.098 322.735C343.952 319.992 356.477 307.357 359.845 303.518C360.684 302.569 361.243 300.561 360.301 299.715C358.514 298.119 349.137 293.971 349.137 293.971L342.304 300.848C342.304 300.848 337.215 316.124 336.722 319.985C336.531 321.441 338.921 323.574 340.098 322.735Z" fill="#0F0A46"/>
<path d="M338.597 290.102L348.07 281.799L349.137 293.963L342.356 300.774L338.597 290.102Z" fill="#FFB1DF"/>
<path fill-rule="evenodd" clip-rule="evenodd" d="M389.286 146.729C393.007 146.655 390.507 146.817 391.205 149.494C391.875 152.076 390.323 159.217 390.08 162.336C389.86 165.123 389.551 176.758 390.242 176.869C390.757 176.949 399.958 163.66 402.068 158.401C405.452 149.965 407.128 146.788 407.893 147.038C409.004 147.398 417.984 148.134 423.919 153.738C432.752 162.086 425.559 179.612 425.015 181.098C423.265 185.871 421.183 196.285 420.44 200.132C419.749 203.691 417.204 208.141 414.145 208.972C413.711 209.09 403.958 211.671 397.008 211.605C388.639 211.531 384.02 210.641 383.417 209.84C379.335 204.441 384.608 198.918 382.005 195.491C371.259 181.333 379.982 180.274 378.975 174.875C377.445 166.712 380.953 163.968 380.519 159.46C380.085 154.996 382.74 146.861 389.286 146.729Z" fill="#E0E8FC"/>
<path fill-rule="evenodd" clip-rule="evenodd" d="M403.502 182.959C404.341 182.834 406.885 183.798 408.503 183.342C410.188 182.864 413.438 179.936 413.622 180.083C413.71 180.15 418.351 180.429 417.711 181.547C417.498 181.915 414.858 184.761 411.872 185.349C408.187 186.063 404.002 184.467 403.495 184.121C403.149 183.871 403.164 183.011 403.502 182.959Z" fill="#C4D4FD"/>
<path fill-rule="evenodd" clip-rule="evenodd" d="M425.589 170.434C425.508 170.294 417.182 179.068 416.999 179.083C415.175 179.282 413.24 179.48 411.527 180.194C410.968 180.429 410.115 180.797 409.887 181.422C409.548 182.341 411.159 182.599 411.718 182.65C413.505 182.819 416.601 182.724 416.425 185.393C416.285 187.519 413.152 186.703 412.542 188.159C412.372 188.571 412.828 189.071 413.064 189.358C413.858 190.336 415.182 191.24 413.873 192.395C412.6 193.52 410.644 193.851 409.173 194.638C408.695 194.896 407.79 195.366 407.901 196.043C408.041 196.859 394.596 204.633 395.243 204.729C397.016 205.001 407.077 204.582 412.777 197.536C414.469 195.447 416.41 192.233 417.057 190.865C420.22 184.143 423.478 176.141 423.478 176.141L425.589 170.434Z" fill="#C4D4FD"/>
<path fill-rule="evenodd" clip-rule="evenodd" d="M389.764 180.075C389.756 180.075 389.756 180.068 389.749 180.068L389.764 180.075Z" fill="#E0E8FC"/>
<path fill-rule="evenodd" clip-rule="evenodd" d="M389.381 180.068C389.381 179.865 389.546 179.7 389.749 179.7C389.765 179.7 389.782 179.701 389.799 179.704C389.816 179.706 389.834 179.709 389.851 179.714C389.868 179.719 389.885 179.725 389.9 179.732C389.916 179.739 389.93 179.746 389.943 179.754C389.944 179.755 389.945 179.755 389.947 179.756C390.057 179.82 390.132 179.939 390.132 180.075C390.132 180.279 389.967 180.443 389.764 180.443C389.748 180.443 389.731 180.442 389.714 180.44C389.697 180.438 389.679 180.434 389.662 180.429C389.645 180.424 389.628 180.418 389.613 180.411C389.597 180.405 389.583 180.397 389.57 180.389C389.569 180.389 389.568 180.388 389.567 180.387C389.456 180.324 389.381 180.205 389.381 180.068ZM389.496 180.331L389.497 180.332L389.496 180.331ZM390.017 179.812L390.016 179.811L390.017 179.812Z" fill="#0F0A46"/>
<path fill-rule="evenodd" clip-rule="evenodd" d="M389.374 187.312C389.374 187.109 389.539 186.944 389.742 186.944H389.764C389.967 186.944 390.132 187.109 390.132 187.312C390.132 187.515 389.967 187.68 389.764 187.68H389.742C389.539 187.68 389.374 187.515 389.374 187.312Z" fill="#0F0A46"/>
<path fill-rule="evenodd" clip-rule="evenodd" d="M390.659 195.723C390.75 195.905 390.676 196.126 390.494 196.217L390.48 196.224C390.298 196.315 390.077 196.241 389.986 196.06C389.895 195.878 389.969 195.657 390.151 195.566L390.165 195.559C390.347 195.468 390.568 195.542 390.659 195.723Z" fill="#0F0A46"/>
<path fill-rule="evenodd" clip-rule="evenodd" d="M390.749 203.449C390.742 203.449 390.735 203.449 390.727 203.457L390.749 203.449Z" fill="#E0E8FC"/>
<path fill-rule="evenodd" clip-rule="evenodd" d="M390.748 203.082C390.748 203.082 390.749 203.082 390.749 203.082C390.953 203.082 391.117 203.246 391.117 203.449C391.117 203.616 391.006 203.757 390.855 203.802C390.724 203.85 390.572 203.822 390.467 203.717C390.324 203.573 390.324 203.34 390.467 203.197C390.585 203.079 390.726 203.081 390.748 203.082ZM390.749 203.817C390.752 203.817 390.755 203.817 390.758 203.817C390.749 203.817 390.745 203.817 390.749 203.817Z" fill="#0F0A46"/>
<path fill-rule="evenodd" clip-rule="evenodd" d="M411.99 169.662C418.072 167.426 423.515 169.669 422.235 175.325C420.948 180.988 408.989 200.265 397.185 202.81C385.314 205.362 359.588 194.536 354.336 193.624C343.047 191.66 343.959 193.329 340.745 195.087C338.906 196.095 339.164 192.741 340.877 190.468C343.216 187.343 347.129 185.416 347.57 185.261C349.637 184.555 353.969 187.902 356.124 188.166C359.948 188.637 388.58 194.183 396.464 190.88C404.334 187.571 405.908 171.898 411.99 169.662Z" fill="#FFB1DF"/>
<path fill-rule="evenodd" clip-rule="evenodd" d="M318.291 308.466L327.999 308.415L327.683 295.11L317.099 295.397L318.291 308.466Z" fill="#FFB1DF"/>
<path d="M327.947 306.15L327.999 308.415L318.291 308.466L318.173 307.172L327.947 306.15Z" fill="#D57FBC"/>
<path d="M348.931 291.558L349.144 293.97L342.363 300.773L341.848 299.317L348.931 291.558Z" fill="#D57FBC"/>
<path fill-rule="evenodd" clip-rule="evenodd" d="M326.499 235.772C326.447 235.817 326.381 235.831 326.308 235.809C326.234 235.787 326.205 235.736 326.197 235.684C326.183 235.647 326.183 235.581 326.227 235.515C326.234 235.5 326.256 235.478 326.286 235.464C326.322 235.441 326.396 235.405 326.403 235.397C326.506 235.353 326.609 235.316 326.719 235.28C327.036 235.184 327.367 235.111 327.698 235.059C328.264 234.978 328.808 234.941 329.374 235.052C329.742 235.125 330.095 235.302 330.456 235.375C330.551 235.397 330.617 235.493 330.595 235.596C330.573 235.699 330.478 235.758 330.375 235.736C330.014 235.662 329.661 235.486 329.294 235.412C328.771 235.309 328.264 235.346 327.742 235.419C327.433 235.464 327.124 235.537 326.822 235.625C326.727 235.655 326.639 235.684 326.543 235.728C326.558 235.743 326.514 235.765 326.499 235.772ZM326.506 235.508C326.491 235.493 326.469 235.471 326.44 235.464C326.462 235.478 326.484 235.493 326.506 235.508Z" fill="white"/>
<path fill-rule="evenodd" clip-rule="evenodd" d="M330.456 234.346C330.419 234.287 330.367 234.228 330.323 234.169C330.154 233.964 329.956 233.78 329.75 233.603C329.132 233.074 328.426 232.669 327.661 232.397C327.565 232.36 327.514 232.257 327.551 232.162C327.587 232.066 327.69 232.015 327.786 232.051C328.595 232.338 329.338 232.772 329.992 233.331C330.213 233.522 330.426 233.721 330.61 233.941C330.669 234.015 330.728 234.089 330.779 234.162C330.779 234.169 330.823 234.243 330.831 234.265C330.846 234.287 330.853 234.309 330.86 234.331C330.882 234.427 330.831 234.53 330.728 234.559C330.691 234.567 330.603 234.581 330.529 234.493C330.522 234.464 330.47 234.368 330.456 234.346Z" fill="white"/>
<path fill-rule="evenodd" clip-rule="evenodd" d="M377.511 190.572C377.511 190.572 377.525 190.704 377.54 190.961C377.577 191.594 377.378 192.918 377.209 194.903C377.158 195.448 377.143 196.051 377.062 196.676C376.9 197.838 376.584 201.905 376.584 201.905C376.584 201.905 385.027 203.28 387.866 203.45C389.999 203.575 394.294 203.604 396.405 203.273C398.567 202.935 402.936 201.935 404.811 200.795C407.378 199.235 413.13 192.123 413.13 192.123C413.13 192.123 420.918 179.723 422.727 176.421C423.536 174.943 425.346 172.096 425.588 170.427C426.934 161.329 424.382 159.682 417.77 158.99C416.807 158.887 412.887 158.99 406.29 172.758C405.076 175.296 402.392 181.613 401.031 184.077C400.391 185.232 399.303 187.755 398.288 188.593C396.552 190.027 390.08 190.049 387.866 190.461C385.329 190.947 377.511 190.572 377.511 190.572Z" fill="#E0E8FC"/>
<path fill-rule="evenodd" clip-rule="evenodd" d="M377.548 190.96L376.643 201.146L375.334 200.852L376.165 194.946L376.651 190.872L377.548 190.96Z" fill="#0F0A46"/>
<path fill-rule="evenodd" clip-rule="evenodd" d="M412.769 162.409C408.423 166.065 399.031 185.893 396.353 188.121C395.383 188.93 378.114 189.416 378.114 189.416C378.511 190.166 378.114 190.879 380.122 190.696C382.836 190.446 388.874 191.071 391.249 190.879C392.926 190.747 396.508 190.659 397.876 189.681C398.869 188.967 408.548 170.691 409.474 168.94C409.526 168.852 409.577 168.764 409.636 168.683L413.872 162.704C414.005 162.512 414.167 162.351 414.343 162.203L416.174 160.762C416.167 160.755 413.461 161.828 412.769 162.409Z" fill="#C4D4FD"/>
<path fill-rule="evenodd" clip-rule="evenodd" d="M381.85 203.448C381.85 203.448 390.352 204.905 393.22 204.934C393.331 204.934 400.068 204.287 400.163 204.235L405.488 201.61C405.569 201.573 405.643 201.521 405.709 201.455L411.6 195.961C411.651 195.91 411.703 195.851 411.74 195.792C412.372 194.836 411.026 193.821 410.276 194.689L406.54 199.013C406.474 199.094 406.393 199.161 406.297 199.212L401.038 202.213C400.95 202.264 400.855 202.301 400.759 202.316L395.206 203.397C395.147 203.412 395.081 203.412 395.015 203.412L386.064 203.279C386.028 203.279 385.991 203.279 385.954 203.272L381.997 202.742L381.85 203.448Z" fill="#C4D4FD"/>
<path fill-rule="evenodd" clip-rule="evenodd" d="M371.369 188.224L372.649 187.606L369.796 180.45L369.141 180.928L369.295 181.553L371.369 188.224Z" fill="#0F0A46"/>
<path fill-rule="evenodd" clip-rule="evenodd" d="M395.648 144.898C395.648 144.898 395.317 153.937 395.611 156.937C395.854 159.379 397.553 166.557 397.553 166.557C397.553 166.557 391.683 175.729 390.293 176.883C390.043 177.089 389.955 175.545 389.904 175.089C389.72 173.338 389.764 168.043 389.764 168.043L390.455 158.621L395.648 144.898Z" fill="#D57FBC"/>
<path d="M382.284 118.231C384.696 115.649 388.91 110.199 396.677 110.92C399.288 111.163 406.407 118.267 407.466 128.527C407.856 132.293 405.282 137.647 402.943 139.287C399.943 141.39 399.332 142.839 395.831 142.861C393.478 142.876 390.381 141.155 387.962 138.647C386.807 137.448 385.807 135.992 384.88 134.426C383.674 132.381 382.821 129.277 382.218 126.409C381.563 123.232 380.357 120.297 382.284 118.231Z" fill="#FFB1DF"/>
<path fill-rule="evenodd" clip-rule="evenodd" d="M405.422 122.695C400.737 121.025 395.92 119.532 391.08 121.945C389.146 122.908 382.586 126.865 382.586 126.865C382.586 126.865 382.578 127.784 382.027 127.88C381.894 127.902 381.365 123.033 381.858 119.922C382.299 117.127 383.777 114.465 385.336 113.053C391.338 107.596 401.237 110.868 403.686 118.142" fill="#0F0A46"/>
<path fill-rule="evenodd" clip-rule="evenodd" d="M386.425 131.387C386.013 131.505 385.579 131.27 385.454 130.865C385.329 130.453 385.564 130.012 385.976 129.887C385.984 129.887 385.991 129.88 386.006 129.88C386.425 129.762 386.859 130.012 386.969 130.431C387.087 130.843 386.844 131.27 386.425 131.387ZM386.425 131.387H386.44C386.432 131.387 386.425 131.387 386.425 131.387Z" fill="#0F0A46"/>
<path fill-rule="evenodd" clip-rule="evenodd" d="M391.683 127.159C391.831 126.975 392.051 126.857 392.309 126.865C392.331 126.872 392.743 127.004 392.801 127.048C393.007 127.225 393.081 127.446 393.073 127.666C393.066 127.821 393.037 128.056 392.765 128.255C392.595 128.387 392.382 128.431 392.191 128.402C391.948 128.365 391.742 128.225 391.632 128.019L391.625 128.012V128.005L391.617 127.99L391.61 127.968L391.603 127.953L391.595 127.938L391.588 127.931C391.544 127.828 391.529 127.718 391.529 127.6C391.529 127.541 391.544 127.482 391.558 127.424C391.573 127.343 391.61 127.254 391.683 127.159ZM391.529 127.644C391.529 127.74 391.544 127.835 391.58 127.931V127.938L391.588 127.96L391.595 127.975L391.603 127.997L391.61 128.012L391.617 128.019C391.647 128.071 391.691 128.122 391.735 128.174C391.713 128.152 391.691 128.13 391.669 128.1C391.58 127.968 391.529 127.806 391.529 127.644ZM391.529 127.607V127.615V127.607ZM391.801 127.048C391.757 127.085 391.72 127.122 391.691 127.159C391.632 127.24 391.588 127.328 391.558 127.424C391.544 127.482 391.536 127.534 391.536 127.578C391.544 127.379 391.639 127.188 391.801 127.048ZM392.309 126.865C392.309 126.865 392.323 126.865 392.331 126.865H392.309Z" fill="#0F0A46"/>
<path fill-rule="evenodd" clip-rule="evenodd" d="M389.256 136.888C389.264 136.918 392.103 137.344 394.537 135.219C395.015 134.807 396.067 133.314 396.155 133.365C396.302 133.454 396.876 135.52 396.788 136.219C396.589 137.845 395.067 139.249 393.243 139.514C390.779 139.874 389.256 136.888 389.256 136.888Z" fill="#0F0A46"/>
<path fill-rule="evenodd" clip-rule="evenodd" d="M389.955 137.278C389.963 137.278 392.272 137.595 393.831 136.646C395.28 135.763 396.104 134.175 396.119 134.167C396.119 134.167 396.038 135.888 395.229 136.697C394.846 137.08 394.273 137.558 393.655 137.808C390.985 138.845 389.955 137.278 389.955 137.278Z" fill="white"/>
<path fill-rule="evenodd" clip-rule="evenodd" d="M389.006 131.799C389.234 131.586 389.705 133.226 391.109 133.071C391.352 133.042 391.698 132.88 391.933 132.932C392.117 132.968 392.088 133.196 392.051 133.329C391.808 134.204 390.573 134.873 389.727 134.351C389.146 133.991 388.778 132.012 389.006 131.799Z" fill="#0F0A46"/>
<path fill-rule="evenodd" clip-rule="evenodd" d="M389.374 126.379C389.367 126.401 389.359 126.416 389.345 126.431C389.197 126.673 388.962 126.534 388.947 126.526C388.925 126.512 388.764 126.394 388.844 126.188C388.859 126.159 388.955 125.975 389.006 125.909C389.087 125.791 389.19 125.681 389.286 125.578C389.631 125.217 390.021 124.938 390.462 124.695C391.095 124.349 391.86 124.011 392.639 123.886C393.456 123.746 394.28 123.835 394.986 124.327C395.111 124.416 395.14 124.585 395.052 124.71C394.964 124.835 394.794 124.864 394.669 124.776C394.081 124.371 393.397 124.313 392.728 124.423C392.014 124.541 391.316 124.857 390.727 125.173C390.337 125.386 389.992 125.636 389.683 125.953C389.602 126.041 389.521 126.129 389.455 126.225C389.44 126.262 389.396 126.343 389.374 126.379ZM388.999 126.041C388.962 126.056 388.918 126.085 388.881 126.144C388.911 126.1 388.955 126.063 388.999 126.041Z" fill="#0F0A46"/>
<path fill-rule="evenodd" clip-rule="evenodd" d="M383.167 129.491C383.461 128.696 384.38 128.093 385.3 127.865C385.498 127.814 385.771 127.777 386.028 127.799C386.168 127.814 386.3 127.843 386.403 127.909C386.528 127.998 386.697 127.968 386.785 127.843C386.874 127.718 386.844 127.549 386.719 127.461C386.55 127.343 386.322 127.277 386.079 127.255C385.763 127.225 385.417 127.277 385.175 127.336C384.079 127.608 383.005 128.365 382.659 129.307C382.608 129.447 382.682 129.608 382.821 129.66C382.961 129.711 383.115 129.638 383.167 129.491Z" fill="#0F0A46"/>
<path fill-rule="evenodd" clip-rule="evenodd" d="M402.01 121.451C402.01 121.451 400.597 121.134 399.877 121.031C399.038 120.906 396.876 120.62 396.979 120.715C397.545 121.245 398.553 122.767 398.921 123.436C400.362 126.084 400.965 129.217 401.289 132.137C401.509 134.138 401.679 136.19 401.502 138.197C401.465 138.624 401.436 139.05 401.392 139.477C401.384 139.558 401.326 139.889 401.458 139.933C401.605 139.985 401.877 139.131 401.914 139.05C402.348 137.969 402.671 136.851 402.929 135.726C403.407 133.623 403.907 131.299 403.789 129.136C403.642 126.584 402.767 123.885 402.01 121.451Z" fill="#D57FBC"/>
<path fill-rule="evenodd" clip-rule="evenodd" d="M395.618 142.383C395.611 142.434 395.993 142.346 396.03 142.339C396.434 142.228 396.824 142.081 397.207 141.912C398.097 141.515 398.744 140.919 399.347 140.162C399.575 139.875 399.803 139.573 400.031 139.287C400.053 139.257 400.222 139.014 400.274 139.088C400.332 139.169 400.288 139.338 400.281 139.426C400.251 139.787 400.171 140.147 400.046 140.478C399.538 141.861 398.486 143.008 397.324 143.883C396.934 144.177 395.905 144.773 395.817 144.81C395.809 144.817 395.655 144.898 395.647 144.883C395.618 144.847 395.728 143.28 395.618 142.758" fill="#D57FBC"/>
<path fill-rule="evenodd" clip-rule="evenodd" d="M390.602 113.471C390.602 113.471 399.119 116.193 399.237 116.362C399.516 116.73 399.766 117.119 400.031 117.494C400.833 118.657 396.427 118.561 396.854 119.87C400.229 130.056 404.929 146.369 398.148 164.256C397.655 165.557 396.993 168.235 398.192 168.021C401.774 167.367 417.925 159.063 416.814 138.345C416.535 133.131 414.446 120.848 406.312 111.978C402.201 107.492 397.31 106.779 392.617 107.713C391.117 108.014 387.521 108.669 385.02 110.699C383.623 111.831 382.784 113.847 382.468 114.582C382.35 114.862 386.903 113.273 387.197 113.552C387.359 113.714 387.962 113.508 388.138 113.486C388.977 113.361 389.756 113.376 390.602 113.471Z" fill="#0F0A46"/>
<path fill-rule="evenodd" clip-rule="evenodd" d="M385.63 110.912C383.512 112.273 382.586 113.281 381.423 115.347C380.489 117.002 380.041 120.017 380.07 121.584C380.247 129.821 384.593 139.478 384.785 142.964C385.123 149.216 382.115 166.565 383.806 167.713C385.491 168.867 392.934 154.084 394.905 149.863C395.964 147.598 395.647 142.398 395.647 142.398C395.647 142.398 394.743 142.413 393.926 142.177C392.588 141.787 390.992 141.015 390.345 140.581C389.131 139.78 387.888 138.559 387.395 137.956C383.645 133.359 383.556 129.145 382.813 127.004" fill="#0F0A46"/>
<path fill-rule="evenodd" clip-rule="evenodd" d="M343.166 191.793L341.459 193.242L339.958 194.5L339.722 194.218L341.222 192.961L342.928 191.512L343.166 191.793Z" fill="#D57FBC"/>
</g>
<path fill-rule="evenodd" clip-rule="evenodd" d="M343.149 214.958C343.347 215.002 349.444 302.935 350.025 320.653C350.091 322.499 347.039 322.999 346.657 321.263C346.245 319.447 345.708 316.792 345.061 313.526C340.361 289.689 331.138 221.945 330.447 218.893C330.3 218.187 329.447 215.856 329.8 215.091C330.146 214.304 332.44 214.885 332.97 214.863C335.963 214.76 343.149 214.958 343.149 214.958Z" fill="#8DA6E7"/>
<path fill-rule="evenodd" clip-rule="evenodd" d="M240.257 214.752C240.043 214.796 236.366 303.443 236.307 321.278C236.292 323.131 239.565 323.55 239.94 321.793C240.308 319.954 240.808 317.269 241.389 313.96C245.64 289.836 253.318 221.416 253.958 218.319C254.105 217.606 254.936 215.238 254.539 214.48C254.127 213.7 251.7 214.355 251.134 214.355C247.927 214.333 240.257 214.752 240.257 214.752Z" fill="#8DA6E7"/>
<path d="M359.751 204.405H221.917V218.761H359.758V204.405H359.751Z" fill="#C4D4FD"/>
<path fill-rule="evenodd" clip-rule="evenodd" d="M257.43 119.774C248.244 115.103 243.36 104.285 246.361 93.9293C249.207 84.0004 258.393 77.668 268.16 78.1166C272.823 68.9674 283.392 64.15 293.482 67.1434C297.829 68.4305 301.462 70.9752 304.125 74.2701C307.647 73.6744 311.354 73.8656 315.017 74.9468C323.865 77.565 330.138 84.78 331.955 93.1791C339.552 97.7096 343.56 106.543 341.163 114.898C339.435 120.906 334.772 125.312 328.998 127.187C328.858 128.239 328.623 129.298 328.322 130.364C324.96 142.022 312.906 148.722 301.418 145.317C298.734 144.522 296.307 143.243 294.225 141.595C288.827 147.839 280.178 150.7 271.801 148.222C260.313 144.809 253.701 132.578 257.077 120.921C257.179 120.531 257.312 120.156 257.43 119.774Z" fill="white"/>
<path fill-rule="evenodd" clip-rule="evenodd" d="M302.985 127.32L304.713 104.271C304.713 104.271 284.856 102.851 274.964 102.219C274.905 102.197 273.404 124.099 273.404 124.099L302.985 127.32Z" fill="#E0E8FC"/>
<path fill-rule="evenodd" clip-rule="evenodd" d="M304.375 104.204L312.318 98.8861L310.619 121.502L302.632 127.43" fill="#C4D4FD"/>
<path fill-rule="evenodd" clip-rule="evenodd" d="M273.184 102.189C273.125 101.976 305.302 104.903 305.302 104.903L292.291 83.9712L273.184 102.189Z" fill="#D52828"/>
<path fill-rule="evenodd" clip-rule="evenodd" d="M292.313 84.0157L313.723 99.1664L305.236 104.888L292.313 84.0157Z" fill="#9A1F1F"/>
<path fill-rule="evenodd" clip-rule="evenodd" d="M276.442 124.54L277.574 108.338L287.202 109.39L286.202 125.541L276.442 124.54Z" fill="#C4D4FD"/>
<path fill-rule="evenodd" clip-rule="evenodd" d="M290.474 109.941L299.991 110.927L299.491 119.098L289.901 118.142L290.474 109.941Z" fill="#C4D4FD"/>
<path fill-rule="evenodd" clip-rule="evenodd" d="M304.949 110.713L310.913 107.919L310.259 115.156L304.235 118.914L304.949 110.713Z" fill="#E0E8FC"/>
<path fill-rule="evenodd" clip-rule="evenodd" d="M286.593 168.954C286.211 167.998 286.328 166.917 286.909 166.071C287.476 165.218 288.439 164.711 289.469 164.711C300.567 164.711 328.662 164.711 336.488 164.711C337.73 164.711 338.826 165.483 339.246 166.638C342.165 174.581 353.109 204.382 353.109 204.382H300.655C300.655 204.382 290.653 179.185 286.593 168.954Z" fill="#0F0A46"/>
<path d="M305.907 204.405H362.803V200.301H305.907V204.405Z" fill="#0F0A46"/>
<path fill-rule="evenodd" clip-rule="evenodd" d="M322.404 186.584C323.205 188.069 322.705 189.893 321.293 190.658C319.874 191.423 318.072 190.842 317.27 189.356C316.468 187.871 316.969 186.047 318.395 185.282C319.807 184.517 321.617 185.105 322.404 186.584Z" fill="white"/>
<path fill-rule="evenodd" clip-rule="evenodd" d="M173.167 258.483C172.998 258.505 165.341 310.974 164.378 321.528C164.282 322.432 167.055 322.69 167.364 321.829C170.799 312.268 184.949 264.176 184.949 264.176C184.949 264.176 181.213 263.345 180.735 263.337C178.072 263.286 173.167 258.483 173.167 258.483Z" fill="#8DA6E7"/>
<path fill-rule="evenodd" clip-rule="evenodd" d="M223.311 263.396C223.495 263.418 231.284 311.908 232.277 321.675C232.372 322.579 229.599 322.837 229.283 321.976C225.944 312.834 212.904 268.515 212.213 266.809C212.066 266.463 211.316 265.316 211.632 264.94C211.933 264.558 213.978 264.838 214.441 264.83C217.111 264.771 223.311 263.396 223.311 263.396Z" fill="#8DA6E7"/>
<path fill-rule="evenodd" clip-rule="evenodd" d="M204.086 220.651C197.202 220.651 192.076 222.254 189.2 218.187C191.76 212.81 195.01 207.353 195.01 200.866C195.01 184.855 192.238 168.05 176.013 168.05C168.305 168.05 153.397 167.3 147.05 170.889C141.02 174.301 137.269 182.671 137.901 189.577C138.916 200.624 151.265 236.441 153.383 242.531C154.707 249.944 157.016 256.233 160.833 259.954C171.755 270.589 208.903 267.677 223.804 266.345C232.652 265.551 240.595 240.008 233.689 232.624V232.617C222.208 217.503 210.97 220.651 204.086 220.651Z" fill="#C4D4FD"/>
<path fill-rule="evenodd" clip-rule="evenodd" d="M182.184 221.754C172.836 218.113 152.633 222.467 157.582 235.301C169.629 266.573 215.817 256.667 221.046 255.328C244.037 233.941 204.645 224.732 191.392 225.909C191.392 225.909 186.545 223.445 182.184 221.754Z" fill="#8DA6E7"/>
<g filter="url(#filter2_d)">
<path fill-rule="evenodd" clip-rule="evenodd" d="M241.631 215.828C242.183 217.299 247.044 211.091 249.368 211.091C259.672 211.099 274.463 210.29 274.933 223.756C275.875 252.719 267.093 308.46 267.093 308.46C267.093 308.46 264.387 311.395 262.835 311.41C260.32 311.432 257.503 308.666 257.503 308.666C257.503 308.666 256.377 243.614 256.098 239.319C255.326 227.735 229.224 225.198 225.326 222.072" fill="#FFB1DF"/>
<path fill-rule="evenodd" clip-rule="evenodd" d="M254.186 244.062C254.186 244.062 242.617 246.319 238.726 247.29C236.991 247.724 231.614 248.408 231.614 248.408C231.614 248.408 231.761 242.179 232.026 240.127C232.254 238.398 232.879 234.934 233.475 233.294C234.041 231.75 235.623 228.837 236.579 227.499C252.568 207.737 263.321 211.782 263.321 211.782L251.222 223.476L254.186 244.062Z" fill="#D57FBC"/>
<path fill-rule="evenodd" clip-rule="evenodd" d="M187.42 249.152C155.743 244.871 166.032 213.371 168.246 206.134C168.29 205.994 172.328 208.708 180.256 209.414C182.455 209.613 184.669 211.231 187.435 210.929C195.304 210.091 203.034 208.443 207.726 206.928C208.344 206.73 212.279 204.178 220.568 204.443C236.005 204.935 260.504 211.385 260.504 211.385C260.504 211.385 244.632 215.533 235.755 229.566C231.725 235.928 231.614 248.409 231.614 248.409C231.614 248.409 198.739 250.461 187.42 249.152Z" fill="#221A77"/>
<path d="M175.388 209.789C175.946 210.789 177.395 212.584 178.131 213.466C178.8 214.268 180.131 215.915 180.977 216.519C181.565 216.938 182.911 217.541 183.617 217.71C184.647 217.96 186.802 217.967 187.861 217.916C189.428 217.835 192.539 217.305 194.076 216.982C196.768 216.423 202.085 215.011 204.689 214.136C206.263 213.606 209.337 212.312 210.903 211.753C212.779 211.083 216.633 210.054 218.464 209.267C218.839 209.105 219.913 208.48 219.913 208.48L236.365 208.649L236.476 206.266L230.577 205.229L220.567 204.435L180.359 206.369L179.477 209.318L175.005 208.818C175.012 208.826 175.262 209.561 175.388 209.789Z" fill="#0F0A46"/>
<path fill-rule="evenodd" clip-rule="evenodd" d="M231.57 146.149C228.577 142.582 225.076 138.905 222.671 137.713C220.994 136.875 217.736 138.589 217.192 138.993C215 140.626 216.39 143.715 217.456 146.179C218.449 148.503 221.671 149.385 223.884 149.731C224.517 149.827 225.76 149.606 225.863 150.334C226.26 153.166 227.393 175.862 225.157 179.672L223.428 176.451L221.876 173.759L219.913 170.442L219.905 170.471C216.603 159.91 213.051 156.622 212.22 156.122C210.55 155.122 214.272 167.713 213.845 171.133C213.279 175.612 204.387 164.227 204.387 164.227C204.387 164.227 202.629 181.378 218.92 192.837C227.407 198.802 234.247 193.116 235.211 184.556C236.549 172.634 235.078 150.319 231.57 146.149Z" fill="#FFB1DF"/>
<path fill-rule="evenodd" clip-rule="evenodd" d="M265.571 225.528C265.644 225.513 268.984 226.308 268.881 243.334C268.748 265.177 264.88 308.526 264.88 308.526H257.422L256.458 256.793C256.458 256.8 265.093 225.543 265.571 225.528Z" fill="#D57FBC"/>
<path fill-rule="evenodd" clip-rule="evenodd" d="M265.159 219.836C268.336 231.228 263.644 248.21 261.29 254.145C254.149 272.164 243.315 298.862 243.205 301.12C242.97 305.518 242.58 312.439 245.765 314.66C246.728 315.329 245.86 315.822 246.515 316.852C246.882 317.433 248.287 318.396 247.883 318.639C246.515 319.47 244.889 318.006 243.367 317.683C240.888 317.161 240.521 311.314 238.366 310.166C235.262 308.519 236.365 308.453 235.681 303.893C235.38 301.877 230.055 306.165 231.724 303.937C232.776 302.532 236.056 295.457 236.314 294.317C237.571 288.455 238.623 274.9 241.271 264.089C243.47 255.153 247.5 248.96 247.243 245.452C246.301 245.79 237.52 247.541 237.52 247.541C237.52 247.541 239.998 234.038 242.308 229.544C244.264 225.734 248.037 221.593 250.729 219.85C253.759 217.887 263.055 214.481 265.159 219.836Z" fill="#FFB1DF"/>
<path fill-rule="evenodd" clip-rule="evenodd" d="M218.81 138.176C218.81 138.176 218.324 140.625 218.258 141.457C218.221 141.898 218.236 142.78 218.258 143.214C218.287 143.817 218.332 145.046 218.501 145.627C218.618 146.046 219.001 146.833 219.258 147.178C219.538 147.546 220.281 148.12 220.641 148.421C220.832 148.583 221.229 148.899 221.435 149.039C221.524 149.105 221.818 149.282 221.818 149.282C221.818 149.282 220.361 148.98 219.92 148.767C219.435 148.532 218.552 147.892 218.192 147.487C217.831 147.083 217.309 146.119 217.089 145.627C216.78 144.943 216.375 143.486 216.191 142.766C216.103 142.405 215.905 141.685 215.912 141.317C215.912 141.17 216.052 140.728 216.052 140.728L216.809 139.28L217.199 138.993L218.258 138.345L218.81 138.176Z" fill="#D57FBC"/>
<path fill-rule="evenodd" clip-rule="evenodd" d="M202.967 151.738C202.982 151.65 203.695 150.436 203.968 150.451C215.36 151.179 219.949 167.713 219.949 167.713C219.949 167.713 218.765 168.213 213.463 171.611C210.123 173.751 206.836 175.781 205.108 179.34C203.556 182.547 203.394 187.409 203.394 187.409C203.394 187.409 200.673 176.303 200.07 171.118" fill="#0879F9"/>
<path fill-rule="evenodd" clip-rule="evenodd" d="M159.862 164.866C156.515 182.194 159.795 185.437 165.039 202.14C166.687 207.383 173.563 209.104 178.057 209.303C183.492 209.538 195.716 213.15 204.836 204.978C206.115 203.824 205.549 194.866 206.101 183.223C206.174 181.693 206.991 180.384 207.174 178.774C209.432 175.699 220.016 167.83 220.016 167.83L203.968 150.473C203.968 150.473 197.393 153.393 195.863 152.481C193.458 151.046 193.642 151.444 192.509 150.627C191.634 149.995 189.494 149.495 188.744 145.552C188.494 144.28 163.201 147.59 159.862 164.866Z" fill="#0879F9"/>
<path fill-rule="evenodd" clip-rule="evenodd" d="M204.902 162.528C202.423 161.652 200.055 160.167 198.459 158.541C198.187 158.269 197.547 156.644 197.165 157.35C196.135 159.262 202.342 163.638 204.674 163.175C204.902 163.131 205.292 162.498 205.292 162.498" fill="#095AB5"/>
<path fill-rule="evenodd" clip-rule="evenodd" d="M197.393 157.247C198.15 156.483 196.525 159.27 196.495 159.314C196.039 159.969 195.481 160.557 194.87 161.065C192.958 162.653 190.531 163.168 188.111 163.131C187.589 163.124 186.912 162.433 186.934 162.425C187.273 162.344 187.574 162.631 187.648 162.616C188.516 162.396 189.325 162.102 190.126 161.682C191.318 161.057 192.678 160.704 193.745 159.866C194.318 159.417 194.892 159.013 195.451 158.549C195.76 158.292 196.076 158.064 196.437 157.873" fill="#095AB5"/>
<path fill-rule="evenodd" clip-rule="evenodd" d="M207.064 152.238C207.064 152.253 207.653 153.098 207.447 155.136C207.3 156.562 207.344 157.945 206.137 160.6C205.659 161.652 205.593 162.137 205.042 162.682C204.961 162.762 204.821 162.814 204.622 162.792C204.299 162.762 203.777 162.564 203.144 162.24C201.923 161.608 200.313 160.505 199.062 159.342C198.209 158.541 197.532 157.71 197.253 156.967C197.209 156.849 197.253 156.702 197.349 156.651C197.444 156.592 197.562 156.643 197.606 156.768C197.863 157.452 198.503 158.217 199.298 158.967C200.518 160.115 202.1 161.189 203.291 161.806C203.791 162.064 204.218 162.24 204.519 162.306C204.608 162.321 204.681 162.336 204.74 162.328C204.762 162.328 204.792 162.321 204.799 162.314C208.381 155.209 206.704 153.179 206.682 152.407C206.682 151.951 207.064 152.238 207.064 152.238Z" fill="white"/>
<path fill-rule="evenodd" clip-rule="evenodd" d="M187.273 162.189C187.25 162.159 187.206 162.108 187.177 162.056C187.059 161.865 186.942 161.556 186.817 161.181C186.309 159.666 185.802 156.996 185.949 155.334C186.169 152.936 186.684 149.068 187.589 147.81C187.67 147.7 187.64 147.545 187.53 147.472C187.42 147.391 187.265 147.42 187.192 147.531C186.265 148.832 185.691 152.811 185.463 155.297C185.279 157.261 185.993 160.593 186.574 161.946C186.684 162.211 186.802 162.409 186.897 162.52C186.971 162.6 187.037 162.645 187.103 162.667C187.17 162.689 187.368 162.696 187.677 162.645C188.655 162.49 190.943 161.894 192.575 160.99C195.208 159.526 197.209 157.482 197.562 157.033C197.621 156.959 197.643 156.908 197.657 156.886C197.687 156.812 197.672 156.753 197.665 156.724C197.628 156.592 197.488 156.518 197.363 156.562C197.29 156.584 197.231 156.636 197.209 156.702C197.201 156.709 197.194 156.724 197.187 156.731C196.841 157.165 194.899 159.144 192.34 160.563C190.965 161.328 189.089 161.865 188.008 162.093C187.684 162.144 187.368 162.181 187.273 162.189Z" fill="white"/>
<path fill-rule="evenodd" clip-rule="evenodd" d="M196.687 161.175C196.687 161.189 196.679 161.241 196.679 161.285C196.606 162.131 196.304 166.499 196.223 167.382C196.209 167.514 196.091 167.617 195.959 167.603C195.826 167.588 195.723 167.47 195.738 167.338C195.819 166.455 196.12 162.087 196.194 161.241C196.201 161.123 196.216 161.057 196.216 161.05C196.26 160.895 196.385 160.88 196.422 160.873C196.495 160.866 196.598 160.873 196.665 161.005C196.687 161.064 196.694 161.123 196.687 161.175ZM196.451 161.366C196.363 161.366 196.275 161.322 196.223 161.233C196.29 161.351 196.378 161.373 196.451 161.366Z" fill="white"/>
<path fill-rule="evenodd" clip-rule="evenodd" d="M195.848 171.022C195.848 171.037 195.848 171.088 195.841 171.132C195.811 171.978 195.716 176.361 195.679 177.244C195.672 177.376 195.561 177.487 195.422 177.479C195.289 177.472 195.179 177.362 195.186 177.222C195.223 176.339 195.319 171.956 195.348 171.11C195.355 170.992 195.363 170.926 195.363 170.919C195.4 170.764 195.525 170.742 195.561 170.735C195.635 170.72 195.738 170.728 195.811 170.853C195.848 170.912 195.856 170.97 195.848 171.022ZM195.628 171.228C195.539 171.235 195.444 171.191 195.392 171.11C195.458 171.22 195.554 171.235 195.628 171.228Z" fill="white"/>
<path fill-rule="evenodd" clip-rule="evenodd" d="M195.605 179.656C195.605 179.671 195.605 179.723 195.598 179.767C195.569 180.613 195.473 184.996 195.436 185.879C195.429 186.011 195.319 186.121 195.179 186.114C195.047 186.107 194.936 185.996 194.944 185.856C194.98 184.974 195.076 180.591 195.105 179.745C195.113 179.627 195.12 179.561 195.12 179.553C195.157 179.399 195.282 179.377 195.319 179.37C195.392 179.355 195.495 179.362 195.569 179.487C195.605 179.539 195.613 179.598 195.605 179.656ZM195.385 179.862C195.297 179.87 195.201 179.826 195.149 179.745C195.223 179.855 195.311 179.87 195.385 179.862Z" fill="white"/>
<path fill-rule="evenodd" clip-rule="evenodd" d="M195.819 169.463C195.811 169.463 195.811 169.463 195.819 169.463C195.694 169.515 195.547 169.463 195.495 169.338C195.444 169.213 195.503 169.073 195.62 169.014C195.745 168.963 195.885 169.022 195.944 169.139C195.995 169.272 195.937 169.412 195.819 169.463Z" fill="white"/>
<path fill-rule="evenodd" clip-rule="evenodd" d="M195.532 178.819C195.407 178.87 195.26 178.819 195.208 178.694C195.157 178.569 195.216 178.429 195.333 178.37C195.458 178.319 195.598 178.378 195.657 178.495C195.716 178.62 195.657 178.76 195.532 178.819Z" fill="white"/>
<path fill-rule="evenodd" clip-rule="evenodd" d="M195.245 187.798C195.12 187.85 194.973 187.798 194.921 187.673C194.87 187.548 194.929 187.408 195.046 187.349C195.171 187.298 195.311 187.357 195.37 187.475C195.429 187.6 195.37 187.747 195.245 187.798Z" fill="white"/>
<path fill-rule="evenodd" clip-rule="evenodd" d="M207.63 179.752L207.329 179.105L207.174 178.766C207.174 178.766 212.043 171.64 214.698 170.404C216.265 169.669 219.221 168.227 219.221 168.227L219.707 169.919C219.707 169.919 216.449 171.647 214.529 172.817C212.212 174.236 207.63 179.752 207.63 179.752Z" fill="#0F0A46"/>
<path fill-rule="evenodd" clip-rule="evenodd" d="M180.19 167.309C179.837 163.874 160.031 172.141 160.031 172.141C160.031 172.141 178.101 213.504 184.677 213.834C189.082 214.055 197.444 212.562 206.454 209.797C211.433 208.267 217.045 206.458 221.737 205.428C228.496 203.942 233.402 206.083 233.402 206.083L245.897 208.017C245.897 208.017 238.476 198.301 234.578 196.669C229.364 194.484 223.031 196.249 217.979 197.345C217.251 197.5 195.944 199.096 190.509 197.956C184.235 196.624 181.86 166.514 180.19 167.309Z" fill="#FFB1DF"/>
<path fill-rule="evenodd" clip-rule="evenodd" d="M161.95 180.745C161.95 180.745 163.068 176.339 164.936 175.361C166.488 174.552 169.467 172.706 171.151 172.206C173.225 171.581 182.124 170.963 182.124 170.963L186.919 166.719L169.731 157.813L159.861 172.103L161.95 180.745Z" fill="#0879F9"/>
<path fill-rule="evenodd" clip-rule="evenodd" d="M162.237 176.862C162.237 176.862 167.908 172.868 169.173 172.413C174.902 170.338 181.507 171.008 181.507 171.008L181.86 172.67C181.86 172.67 176.976 171.824 170.107 174.067C169.048 174.413 163.341 178.914 163.341 178.914L162.237 176.862Z" fill="#0F0A46"/>
<path d="M184.198 202.898L183.919 202.214C183.948 202.199 186.986 200.971 188.765 199.816C189.177 199.551 190.163 198.463 190.516 198.065L191.067 198.551C190.935 198.705 189.736 200.066 189.17 200.434C187.324 201.633 184.323 202.846 184.198 202.898Z" fill="#D57FBC"/>
<path d="M190.288 204.964L189.589 204.736C189.597 204.714 190.406 202.258 190.56 200.573C190.597 200.235 190.398 199.176 190.273 198.588L190.994 198.433C191.031 198.602 191.347 200.088 191.295 200.647C191.126 202.397 190.325 204.854 190.288 204.964Z" fill="#D57FBC"/>
<path d="M162.237 176.847L173.527 197.985L179.602 209.355C179.602 209.355 176.013 209.061 175.013 208.818C173.961 208.568 167.768 195.499 165.606 190.218C164.297 187.034 162.237 176.847 162.237 176.847Z" fill="#095AB5"/>
<path fill-rule="evenodd" clip-rule="evenodd" d="M189.714 197.609C191.641 198.867 199.033 198.249 199.033 198.249L205.74 197.918L207.175 178.774C207.175 178.774 204.622 186.967 203.174 189.321C202.6 190.255 201.055 192.057 199.996 192.358C199.334 192.549 197.937 192.079 197.305 191.807C196.621 191.512 195.407 190.608 194.892 190.078C190.788 185.893 181.808 172.508 181.808 172.508C181.808 172.508 182.948 182.687 184.397 186.489C184.824 187.614 186.383 195.432 189.714 197.609Z" fill="#095AB5"/>
<path fill-rule="evenodd" clip-rule="evenodd" d="M284.568 318.198C281.494 315.815 267.093 308.607 267.093 308.607L257.385 308.556C257.385 308.556 253.7 318.131 253.568 320.522C253.494 321.787 255.318 322.809 256.576 322.89C261.673 323.221 279.464 323.309 284.134 322.522C285.546 322.287 285.723 319.087 284.568 318.198Z" fill="#0F0A46"/>
<path fill-rule="evenodd" clip-rule="evenodd" d="M248.832 320.125C248.339 316.263 243.249 300.988 243.249 300.988L236.417 294.089C236.417 294.089 227.04 298.259 225.252 299.855C224.311 300.701 224.87 302.709 225.708 303.657C229.077 307.497 241.602 320.132 245.456 322.875C246.632 323.714 249.023 321.581 248.832 320.125Z" fill="#0F0A46"/>
<path fill-rule="evenodd" clip-rule="evenodd" d="M181.293 172.898L181.845 172.692C181.845 172.692 183.323 177.031 183.779 178.487C184.257 180.032 185.14 183.143 185.574 184.702C186.111 186.629 187.096 190.505 187.648 192.432C187.89 193.3 188.317 195.057 188.685 195.881C188.891 196.345 189.722 197.61 189.722 197.61L177.079 193.469L177.358 181.392L181.293 172.898Z" fill="#FFB1DF"/>
<path fill-rule="evenodd" clip-rule="evenodd" d="M163.37 178.906C163.37 178.906 166.761 187.224 167.415 188.695C168.18 190.409 172.747 199.028 173.424 200.22C174.262 201.698 179.845 209.707 179.845 209.707L179.433 180.818L163.37 178.906Z" fill="#FFB1DF"/>
<path d="M220.935 186.541L220.413 186.026C220.435 186.004 222.737 183.68 223.914 181.907C224.186 181.503 224.664 180.113 224.826 179.613L225.524 179.841C225.466 180.039 224.899 181.76 224.524 182.326C223.311 184.143 221.031 186.445 220.935 186.541Z" fill="#D57FBC"/>
<path d="M226.62 186.092C226.62 186.062 226.378 183.496 225.855 181.885C225.753 181.569 225.157 180.671 224.804 180.179L225.399 179.752C225.502 179.892 226.385 181.135 226.554 181.664C227.098 183.348 227.341 185.923 227.348 186.026L226.62 186.092Z" fill="#D57FBC"/>
<path fill-rule="evenodd" clip-rule="evenodd" d="M226.746 148.494L226.915 148.252C226.915 148.252 226.282 157.085 226.223 159.159C226.142 161.902 225.481 166.874 225.289 169.617C225.216 170.632 225.289 180.384 225.289 180.384L231.504 164.645L228.812 150.561L226.746 148.494Z" fill="#FFB1DF"/>
<path d="M243.19 300.914L236.409 294.104L236.63 292.729L243.97 298.414L243.19 300.914Z" fill="#D57FBC"/>
<path fill-rule="evenodd" clip-rule="evenodd" d="M240.454 222.674C240.454 222.682 240.469 222.659 240.469 222.659L240.454 222.674Z" fill="#0F0A46"/>
<path fill-rule="evenodd" clip-rule="evenodd" d="M209.697 115.171C202.821 113.516 195.65 119.187 193.686 127.821C191.722 136.463 195.709 144.825 202.585 146.48C209.462 148.135 216.633 142.464 218.597 133.83C220.56 125.195 216.574 116.833 209.697 115.171Z" fill="#FFB1DF"/>
<path fill-rule="evenodd" clip-rule="evenodd" d="M206.601 146.295C206.601 146.295 206.534 146.56 206.174 146.744C203.431 148.141 204.857 149.848 203.401 151.297C202.379 152.319 198.819 155.481 193.583 152.554C188.802 148.443 188.876 146.06 188.743 145.553C188.692 145.442 190.692 146.266 191.943 145.427C194.208 143.868 195.311 143.25 195.282 140.47" fill="#FFB1DF"/>
<path fill-rule="evenodd" clip-rule="evenodd" d="M217.081 134.175C217.081 134.182 217.096 134.16 217.096 134.16L217.081 134.175Z" fill="#0F0A46"/>
<path fill-rule="evenodd" clip-rule="evenodd" d="M217.504 133.548C217.842 133.773 217.933 134.23 217.708 134.568L217.118 134.175C217.708 134.568 217.708 134.568 217.708 134.568L217.707 134.569L217.706 134.571L217.703 134.576L217.695 134.587C217.689 134.595 217.678 134.611 217.663 134.629C217.656 134.639 217.643 134.654 217.626 134.672C217.615 134.685 217.579 134.724 217.525 134.764C217.499 134.783 217.444 134.822 217.366 134.855C217.298 134.883 217.123 134.945 216.903 134.89C216.64 134.824 216.481 134.636 216.409 134.474C216.349 134.339 216.346 134.222 216.346 134.175C216.346 133.97 216.43 133.784 216.565 133.651C216.807 133.398 217.203 133.347 217.504 133.548ZM217.817 134.175C217.817 134.158 217.816 134.142 217.815 134.126C217.817 134.147 217.817 134.163 217.817 134.175Z" fill="#0F0A46"/>
<path fill-rule="evenodd" clip-rule="evenodd" d="M209.601 131.69C209.601 131.697 209.616 131.675 209.616 131.675L209.601 131.69Z" fill="#0F0A46"/>
<path fill-rule="evenodd" clip-rule="evenodd" d="M210.024 131.063C210.362 131.288 210.453 131.745 210.228 132.083L209.638 131.69C210.228 132.083 210.228 132.083 210.228 132.083L210.227 132.084L210.226 132.086L210.223 132.091L210.215 132.102C210.209 132.11 210.198 132.126 210.183 132.144C210.176 132.154 210.163 132.169 210.147 132.187C210.135 132.2 210.099 132.239 210.045 132.279C210.019 132.298 209.964 132.337 209.886 132.37C209.818 132.398 209.643 132.46 209.424 132.405C209.16 132.339 209.001 132.151 208.929 131.989C208.869 131.854 208.866 131.736 208.866 131.69C208.866 131.485 208.95 131.299 209.085 131.166C209.327 130.913 209.723 130.862 210.024 131.063ZM210.337 131.69C210.337 131.673 210.336 131.657 210.335 131.641C210.337 131.661 210.337 131.678 210.337 131.69Z" fill="#0F0A46"/>
<path fill-rule="evenodd" clip-rule="evenodd" d="M212.338 140.405C212.338 140.435 209.925 141.111 207.528 139.479C207.057 139.162 205.954 137.941 205.88 138C205.762 138.096 205.534 139.993 205.696 140.604C206.086 142.023 207.586 143.119 209.212 143.163C211.396 143.222 212.338 140.405 212.338 140.405Z" fill="#0F0A46"/>
<path fill-rule="evenodd" clip-rule="evenodd" d="M211.778 140.825C211.771 140.825 209.8 141.347 208.322 140.67C206.946 140.038 206.027 138.706 206.012 138.706C206.012 138.706 206.306 140.229 207.115 140.861C207.498 141.163 208.057 141.531 208.631 141.678C211.087 142.332 211.778 140.825 211.778 140.825Z" fill="white"/>
<path fill-rule="evenodd" clip-rule="evenodd" d="M206.343 146.664C206.292 146.649 196.944 149.775 193.039 147.767C190.729 146.576 188.736 145.546 188.736 145.546C188.736 145.546 191.553 146.098 193.612 144.23C194.583 143.45 195.267 140.67 195.267 140.67C195.267 140.67 196.363 143.171 198.018 144.289C199.504 145.289 201.372 146.179 202.335 146.473C204.424 147.12 206.343 146.664 206.343 146.664Z" fill="#D57FBC"/>
<path fill-rule="evenodd" clip-rule="evenodd" d="M211.904 137.462C211.881 137.183 210.947 137.801 210.138 136.859C209.999 136.698 209.874 136.374 209.69 136.271C209.55 136.183 209.432 136.359 209.381 136.47C209.02 137.205 209.432 138.404 210.278 138.558C210.859 138.661 211.926 137.749 211.904 137.462Z" fill="#0F0A46"/>
<path fill-rule="evenodd" clip-rule="evenodd" d="M197.29 140.199C195.782 133.197 201.18 128.093 203.983 125.578C206.115 123.665 205.704 123.548 205.704 123.548L201.416 122.864C201.416 122.864 196.29 121.113 194.833 123.761C193.863 125.526 192.818 129.748 193.112 132.785C193.274 134.433 193.392 135.757 194.002 137.735C194.421 139.096 195.194 139.463 195.282 140.581" fill="#0F0A46"/>
<path fill-rule="evenodd" clip-rule="evenodd" d="M195.297 140.582C195.319 140.869 195.164 141.994 195.194 142.214C195.341 143.45 195.569 143.406 196.422 144.252C197.783 145.598 200.511 146.031 202.239 146.789C203.74 147.451 206.204 146.73 206.204 146.73C203.924 146.693 198.312 144.811 197.319 140.185" fill="#D57FBC"/>
<path fill-rule="evenodd" clip-rule="evenodd" d="M200.614 127.953C202.482 125.791 205.762 124.541 205.637 124.643C205.248 124.952 204.762 125.666 204.446 126.048C203.372 127.343 202.695 128.211 202.467 129.932C202.364 130.711 202.364 131.498 202.592 132.263C203.019 133.697 203.88 135.072 203.49 136.617C203.026 138.485 201.011 139.382 199.923 140.831C199.386 141.545 199.945 140.375 199.511 141.147C199.393 141.361 199.187 141.824 198.893 141.817C198.503 141.802 198.341 141.103 198.253 140.831C197.908 139.757 197.393 140.36 197.216 139.25C196.745 136.286 197.694 131.329 200.614 127.953Z" fill="#FFB1DF"/>
<path fill-rule="evenodd" clip-rule="evenodd" d="M197.812 133.293C197.959 133.131 198.246 131.124 198.282 130.02C198.341 128.012 197.643 126.549 196.591 127.233C194.083 128.858 197.812 133.293 197.812 133.293Z" fill="#0F0A46"/>
<path fill-rule="evenodd" clip-rule="evenodd" d="M198.815 127.077C199.254 127.858 199.417 128.956 199.385 130.053L199.385 130.058L199.385 130.058C199.365 130.664 199.278 131.485 199.181 132.167C199.131 132.51 199.077 132.836 199.022 133.097C198.995 133.225 198.964 133.356 198.928 133.472C198.911 133.529 198.887 133.601 198.855 133.676C198.835 133.724 198.767 133.884 198.628 134.036C198.414 134.271 198.109 134.403 197.79 134.397C197.472 134.391 197.172 134.247 196.967 134.004L197.812 133.294C196.967 134.004 196.967 134.004 196.967 134.003L196.966 134.003L196.965 134.001L196.962 133.997L196.951 133.984C196.942 133.973 196.93 133.958 196.914 133.939C196.883 133.901 196.84 133.847 196.787 133.779C196.68 133.642 196.533 133.448 196.366 133.21C196.035 132.74 195.609 132.078 195.263 131.344C194.926 130.628 194.616 129.746 194.62 128.861C194.625 127.91 195.001 126.949 195.991 126.308L196.591 127.234L195.989 126.309C196.458 126.004 197.051 125.845 197.663 126.054C198.229 126.247 198.593 126.682 198.815 127.077ZM197.17 130.206C196.945 129.69 196.825 129.23 196.827 128.871C196.828 128.648 196.871 128.484 196.977 128.348C197.101 128.682 197.201 129.243 197.18 129.986C197.177 130.055 197.174 130.129 197.17 130.206ZM196.838 128.08C196.838 128.08 196.84 128.081 196.842 128.083C196.839 128.081 196.838 128.08 196.838 128.08Z" fill="#0F0A46"/>
<path fill-rule="evenodd" clip-rule="evenodd" d="M202.377 128.733C203.725 126.398 206.812 125.698 209.249 127.105C211.685 128.512 212.622 131.539 211.266 133.867C209.918 136.201 206.831 136.901 204.395 135.494L204.394 135.493C201.965 134.086 201.029 131.067 202.377 128.733ZM208.881 127.742C206.758 126.516 204.137 127.155 203.014 129.1C201.891 131.046 202.647 133.631 204.763 134.857C206.886 136.083 209.506 135.444 210.629 133.498L210.63 133.497C211.759 131.559 211.004 128.968 208.881 127.742Z" fill="#0F0A46"/>
<path fill-rule="evenodd" clip-rule="evenodd" d="M212.305 132.529C213.653 130.194 216.74 129.495 219.177 130.901C221.613 132.308 222.55 135.335 221.194 137.663C219.846 139.998 216.759 140.697 214.323 139.29L214.322 139.29C211.893 137.883 210.958 134.864 212.305 132.529ZM218.809 131.538C216.686 130.312 214.066 130.951 212.942 132.897C211.819 134.843 212.575 137.428 214.691 138.654C216.814 139.879 219.434 139.241 220.557 137.295L220.558 137.294C221.687 135.356 220.933 132.765 218.809 131.538Z" fill="#0F0A46"/>
<path fill-rule="evenodd" clip-rule="evenodd" d="M210.878 133.202C210.945 133.053 211.119 132.987 211.267 133.054C211.324 133.08 211.387 133.101 211.464 133.126C211.473 133.129 211.482 133.132 211.491 133.135C211.557 133.155 211.633 133.18 211.706 133.209C211.752 133.226 211.794 133.25 211.815 133.263C211.827 133.27 211.84 133.278 211.852 133.286C211.925 133.302 211.992 133.347 212.036 133.416C212.042 133.427 212.055 133.449 212.066 133.477C212.066 133.478 212.066 133.478 212.067 133.478C212.072 133.494 212.107 133.585 212.066 133.692C212.04 133.76 211.99 133.816 211.926 133.849C211.869 133.878 211.817 133.882 211.788 133.882C211.734 133.882 211.692 133.867 211.681 133.863L211.681 133.863C211.638 133.847 211.593 133.818 211.579 133.809C211.578 133.808 211.577 133.808 211.576 133.807C211.567 133.802 211.56 133.797 211.553 133.793C211.538 133.783 211.526 133.776 211.513 133.768C211.505 133.763 211.5 133.76 211.498 133.759C211.496 133.758 211.495 133.758 211.493 133.757C211.439 133.735 211.382 133.717 211.313 133.695C211.303 133.692 211.294 133.689 211.284 133.686C211.207 133.661 211.116 133.631 211.026 133.591C210.877 133.524 210.811 133.35 210.878 133.202Z" fill="#0F0A46"/>
<path fill-rule="evenodd" clip-rule="evenodd" d="M201.106 128.065C201.154 128.051 201.195 128.049 201.217 128.049C201.347 128.049 201.461 128.117 201.527 128.218C201.538 128.227 201.552 128.239 201.565 128.252C201.607 128.29 201.646 128.328 201.683 128.363L201.684 128.364C201.723 128.401 201.759 128.435 201.796 128.468L201.8 128.473L201.8 128.473C202.044 128.702 202.279 128.922 202.526 129.127C202.682 129.256 202.704 129.488 202.574 129.644C202.445 129.801 202.213 129.823 202.056 129.693C201.79 129.472 201.54 129.238 201.3 129.012L201.299 129.011C201.256 128.972 201.215 128.933 201.178 128.898L201.177 128.897C201.138 128.859 201.102 128.825 201.066 128.792C201.063 128.79 201.06 128.787 201.057 128.784C201.056 128.783 201.053 128.78 201.046 128.775C201.044 128.773 201.042 128.772 201.039 128.77C201.028 128.761 201.011 128.747 200.996 128.735C200.987 128.726 200.973 128.714 200.958 128.7C200.948 128.69 200.918 128.659 200.892 128.616C200.879 128.594 200.854 128.547 200.844 128.483C200.832 128.411 200.837 128.306 200.907 128.207C200.972 128.116 201.058 128.079 201.106 128.065Z" fill="#0F0A46"/>
<path fill-rule="evenodd" clip-rule="evenodd" d="M195.255 140.701C195.262 141.363 190.647 132.764 190.493 128.601C190.338 124.49 191.147 121.07 195.626 116.187C197.561 114.076 202.047 112.399 203.172 112.164C203.945 112.002 208.166 112.495 208.975 112.833C209.203 112.928 206.563 115.525 206.607 116.201C206.754 118.555 209.269 121.21 207.166 122.946C205.938 123.961 204.003 125.512 202.709 126.16C200.753 127.13 197.395 138.175 197.299 140.16C197.263 140.719 196.012 141.171 195.255 140.701Z" fill="#0F0A46"/>
<path fill-rule="evenodd" clip-rule="evenodd" d="M200.71 129.644C200.379 127.791 199.084 126.452 197.827 126.665C196.569 126.871 195.811 128.548 196.142 130.401C196.473 132.255 197.768 133.593 199.025 133.38C200.29 133.167 201.041 131.497 200.71 129.644Z" fill="#FFB1DF"/>
<path fill-rule="evenodd" clip-rule="evenodd" d="M214.492 120.804C214.492 120.804 216.544 124.364 216.53 124.364C216.39 124.349 216.25 124.357 216.11 124.371C215.875 124.401 213.08 128.549 210.271 126.511C208.175 124.989 206.424 124.18 203.644 126.681C202.173 128.004 201.504 130.579 200.805 130.689C199.945 130.829 200.445 129.13 200.327 128.255C200.151 126.923 202.431 126.011 203.254 124.96C203.666 124.437 204.071 123.908 204.49 123.393C206.351 121.076 209.543 117.222 212.94 119.37C213.544 119.767 214.029 120.26 214.492 120.804Z" fill="#0F0A46"/>
<path fill-rule="evenodd" clip-rule="evenodd" d="M198.606 128.527L198.614 128.534L198.628 128.541L198.636 128.549L198.643 128.556L198.65 128.564C198.996 128.821 199.077 129.306 198.827 129.667C198.584 130.02 198.106 130.108 197.746 129.887C197.738 129.887 197.54 129.704 197.503 129.645C197.415 129.505 197.378 129.365 197.378 129.255C197.349 128.814 197.687 128.439 198.128 128.409C198.297 128.387 198.466 128.439 198.606 128.527ZM197.753 129.873C197.753 129.873 197.724 129.858 197.724 129.851L197.753 129.873ZM198.967 129.078L198.974 129.108L198.967 129.078ZM198.959 129.034L198.967 129.064V129.056L198.959 129.034ZM198.945 128.997L198.952 129.027V129.012L198.945 128.997ZM198.937 128.953L198.945 128.983L198.937 128.953ZM198.922 128.917L198.937 128.946L198.922 128.917L198.915 128.894L198.922 128.917ZM198.893 128.858L198.9 128.88V128.872L198.893 128.858ZM198.871 128.814L198.878 128.821L198.871 128.814Z" fill="#0F0A46"/>
<path d="M217.155 118.936C216.559 118.164 215.566 117.274 214.529 116.443C214.801 116.267 215.066 116.075 215.324 115.847C217.648 113.766 217.721 109.574 216.464 106.882C216.419 106.794 216.302 106.75 216.214 106.794C216.118 106.845 216.081 106.955 216.125 107.044C217.331 109.611 217.28 113.604 215.081 115.568C214.801 115.818 214.515 116.016 214.22 116.2C214.029 116.053 213.845 115.906 213.654 115.766C215.074 114.295 215.78 112.641 215.846 110.589C215.846 110.486 215.765 110.397 215.662 110.397C215.559 110.397 215.471 110.478 215.471 110.581C215.419 112.376 214.86 113.839 213.728 115.149C215.559 110.442 213.845 105.029 209.455 102.491C204.593 99.6816 198.305 101.454 195.414 106.455C193.443 109.853 193.568 113.876 195.378 116.987C195.363 116.987 195.348 116.995 195.334 116.995C193.37 115.472 191.847 112.552 192.737 109.861C193.193 108.478 193.752 107.595 194.223 107.5L194.149 107.132C193.348 107.301 192.745 108.64 192.384 109.75C191.487 112.464 192.877 115.369 194.789 117.039C193.443 117.009 192.539 116.208 191.766 115.332C191.472 114.994 191.141 114.59 190.891 114.126C190.862 114.075 190.832 113.92 190.81 113.817C190.759 113.56 190.722 113.391 190.546 113.369C190.501 113.361 190.384 113.361 190.31 113.509L190.472 113.597L190.376 113.67C190.384 113.7 190.413 113.817 190.435 113.898C190.472 114.045 190.501 114.207 190.553 114.31C190.663 114.487 190.781 114.671 190.906 114.847C191.09 115.112 191.288 115.355 191.48 115.568C192.399 116.62 193.487 117.561 195.231 117.392C195.289 117.436 195.363 117.48 195.422 117.532L195.576 117.311C196.415 118.635 197.555 119.775 198.996 120.606C200.136 121.268 201.357 121.672 202.593 121.841C202.343 122.246 202.225 122.687 202.453 123.401C202.754 124.357 206.645 121.915 209.653 121.569C212.536 121.238 214.647 123.739 214.728 125.548C214.912 129.652 219.236 130.042 219.236 130.042C219.236 130.042 220.053 127.284 220.001 125.982C219.839 122.047 218.707 120.937 217.155 118.936ZM190.516 113.722V113.589L190.649 113.656C190.634 113.67 190.582 113.722 190.516 113.722Z" fill="#0F0A46"/>
<path d="M206.211 129.189C206.321 129.314 206.505 129.321 206.63 129.218C207.292 128.63 208.351 128.637 209.771 129.255C210.124 129.409 210.418 129.593 210.675 129.807C210.741 129.865 210.815 129.932 210.881 129.998C210.918 130.049 211.109 130.343 211.168 130.439C211.175 130.461 211.183 130.483 211.205 130.505C211.271 130.594 211.374 130.638 211.492 130.623C211.594 130.601 211.683 130.535 211.72 130.424C211.815 130.167 211.33 129.608 211.33 129.608C211.249 129.512 211.161 129.431 211.065 129.351C210.763 129.093 210.425 128.887 210.006 128.711C208.358 128.005 207.093 128.027 206.24 128.777C206.115 128.887 206.101 129.071 206.211 129.189ZM214.706 131.756C214.706 131.756 214.713 131.763 214.706 131.756C214.816 131.888 215 131.888 215.125 131.785C215.25 131.675 215.603 131.631 215.941 131.682C216.757 131.807 217.5 132.263 217.772 132.822C217.853 132.969 218.022 133.021 218.17 132.954C218.317 132.873 218.376 132.697 218.302 132.557C217.934 131.822 217.044 131.255 216.029 131.094C215.831 131.064 215.125 130.991 214.728 131.336C214.61 131.454 214.603 131.638 214.706 131.756Z" fill="#0F0A46"/>
<path fill-rule="evenodd" clip-rule="evenodd" d="M182.234 217.195C182.234 217.195 193.031 221.748 198.415 222.733C201.438 223.292 207.491 224.498 210.565 224.594C215.845 224.763 231.614 222.733 231.614 222.733L246.949 208.222L221.737 205.42L211.109 209.348L182.234 217.195Z" fill="#0F0A46"/>
<path fill-rule="evenodd" clip-rule="evenodd" d="M189.089 146.31C189.516 147.149 189.663 147.766 190.494 148.965C195.627 156.349 201.739 152.297 202.261 152.003C202.791 151.701 203.96 150.444 203.96 150.444C203.96 150.444 203.791 150.988 203.681 151.142C203.379 151.576 202.563 152.268 202.129 152.569C201.577 152.952 200.371 153.591 199.724 153.761C198.952 153.966 197.312 154.062 196.525 153.944C195.76 153.827 194.304 153.238 193.642 152.834C192.943 152.407 191.759 151.238 191.207 150.635C190.612 149.98 189.655 148.399 189.251 147.605C189.045 147.2 188.729 145.545 188.729 145.545C188.729 145.545 188.993 146.126 189.089 146.31Z" fill="#D57FBC"/>
</g>
<g filter="url(#filter3_d)">
<path fill-rule="evenodd" clip-rule="evenodd" d="M155.608 107.975C155.608 107.975 176.326 142.159 179.297 144.277C185.497 148.712 208.907 151.559 208.907 151.559C208.907 151.559 213.916 148.264 216.571 147.859C218.726 147.528 222.565 147.381 224.33 148.653C224.83 149.014 225.08 150.191 224.33 150.433C218.615 150.433 216.725 153.03 216.725 153.03C216.725 153.03 222.381 151.765 222.874 153.03C223.3 154.111 220.123 156.655 218.91 156.994C217.615 157.354 215.284 158.457 213.945 158.575C212.099 158.737 190.366 158.685 184.99 158.575C181.187 158.494 173.105 158.09 169.979 156.155C167.662 154.721 145.973 118.757 145.973 118.757L155.608 107.975Z" fill="#FFB1DF"/>
<path fill-rule="evenodd" clip-rule="evenodd" d="M161.676 133.716L167.603 144.189L172.075 151.75L169.95 153.361L168.604 154.581L165.471 150.058L157.792 138.063L161.676 133.716Z" fill="#D57FBC"/>
<path d="M148.934 318.744C146.536 316.184 131.827 307.741 131.827 307.741L114.337 303.512C114.337 303.512 112.991 314.338 113.153 317.302C113.241 318.81 113.822 321.038 115.33 321.303C120.839 322.274 140.579 323.532 146.183 323.105C147.919 322.98 150.103 320.009 148.934 318.744Z" fill="#0F0A46"/>
<path d="M123.526 316.649C121.725 313.627 109.133 302.212 109.133 302.212L92.9456 294.313C92.9456 294.313 89.3565 304.602 88.8931 307.537C88.6578 309.03 88.7608 311.332 90.1729 311.92C95.3506 314.053 114.362 319.532 119.923 320.327C121.636 320.569 124.402 318.135 123.526 316.649Z" fill="#0F0A46"/>
<path fill-rule="evenodd" clip-rule="evenodd" d="M149.231 237.204C149.974 222.288 137.787 165.12 133.058 162.678C126.733 159.413 118.488 160.575 111.774 161.421C107.986 161.899 100.925 160.045 97.3878 161.641C92.4896 163.848 115.171 230.312 115.171 230.312L114.274 304.602C114.274 304.602 128.064 308.493 135.676 309.214" fill="#0879F9"/>
<path fill-rule="evenodd" clip-rule="evenodd" d="M152.504 102.495C151.592 99.4428 152.409 96.1332 152.674 96.1993C156.13 97.0525 161.69 93.6031 164.397 86.6603C165.794 83.0786 167.074 77.6434 166.037 74.9148C165 72.1862 160.683 70.6638 158.175 70.2814C155.667 69.8989 153.453 70.7447 150.982 72.6202C148.768 74.3044 147.621 80.5632 147.297 80.5044C146.253 80.3058 146.224 78.4819 145.392 77.9891C144.76 77.614 143.502 76.6947 142.634 78.3936C142.252 79.1511 142.061 80.019 142.326 80.8795C142.627 81.843 143.429 82.8285 143.62 84.0126C143.774 84.9614 144.811 90.3891 143.664 93.3384C143.296 94.2798 141.87 96.6848 141.561 97.457C140.156 101.024 134.596 103.789 134.059 103.422C133.743 103.201 141.053 110.284 145.459 111.63C151.409 113.446 157.013 105.908 155.601 107.982C155.608 107.974 153.88 107.084 152.504 102.495Z" fill="#FFB1DF"/>
<path fill-rule="evenodd" clip-rule="evenodd" d="M152.556 96.2134C152.129 96.3237 151.254 96.081 150.827 95.9118C148.79 95.0955 146.245 93.0729 145.15 90.6753C144.223 88.6601 143.708 84.49 143.708 84.49C143.708 84.49 143.436 90.9327 141.619 94.1908C137.457 101.649 127.763 98.0741 128.153 98.6846C129.205 100.317 141.443 104.002 145.26 101.921C146.841 101.067 152.556 96.2134 152.556 96.2134Z" fill="#D57FBC"/>
<path fill-rule="evenodd" clip-rule="evenodd" d="M157.697 79.387C157.682 79.4091 157.329 79.9019 157.204 79.9901C157.02 80.1078 156.836 80.1666 156.66 80.1814C156.336 80.2181 156.012 80.1446 155.718 79.8651C155.284 79.4532 155.225 78.7913 155.549 78.2912V78.2838L155.556 78.2691C155.895 77.7469 156.571 77.541 157.123 77.8205C157.704 78.1073 157.939 78.7913 157.697 79.387ZM157.697 79.387C157.682 79.4165 157.675 79.4459 157.66 79.4679L157.697 79.387ZM156.549 77.7249C156.836 77.7102 157.13 77.8058 157.358 78.0044C157.101 77.7837 156.829 77.7102 156.549 77.7249Z" fill="#0F0A46"/>
<path fill-rule="evenodd" clip-rule="evenodd" d="M159.822 90.4252C159.822 90.4546 157.064 91.1018 154.041 89.2043C153.453 88.8366 151.997 87.4465 151.916 87.5054C151.791 87.601 151.754 89.6823 152.026 90.3663C152.659 91.9476 154.564 93.2126 156.483 93.3303C159.072 93.4847 159.822 90.4252 159.822 90.4252Z" fill="#0F0A46"/>
<path fill-rule="evenodd" clip-rule="evenodd" d="M159.219 90.8592C159.211 90.8592 156.954 91.3519 155.13 90.5429C153.431 89.7927 152.18 88.285 152.166 88.285C152.166 88.285 152.703 89.9693 153.732 90.7047C154.225 91.0504 154.924 91.477 155.615 91.6682C158.586 92.4919 159.219 90.8592 159.219 90.8592Z" fill="white"/>
<path fill-rule="evenodd" clip-rule="evenodd" d="M158.498 75.9368C158.506 75.9441 158.513 75.9588 158.528 75.9662C158.557 76.003 158.564 76.0324 158.572 76.0324C158.616 76.1354 158.586 76.2016 158.564 76.2383C158.542 76.2972 158.498 76.3339 158.454 76.3634C158.439 76.3707 158.285 76.459 158.153 76.3192C158.138 76.3045 158.05 76.2016 158.013 76.1574C157.932 76.0692 157.844 75.9883 157.755 75.9074C157.483 75.6647 157.189 75.4367 156.865 75.2749C155.983 74.8483 154.983 75.2013 154.313 75.672C154.196 75.7529 154.041 75.7235 153.96 75.6058C153.887 75.4881 153.916 75.3263 154.034 75.2454C154.836 74.6865 156.034 74.2893 157.093 74.8042C157.461 74.9807 157.792 75.2381 158.094 75.5102C158.197 75.5985 158.3 75.6941 158.395 75.797C158.41 75.8338 158.469 75.9 158.498 75.9368ZM158.072 76.1133C158.064 76.1648 158.072 76.231 158.123 76.2898C158.086 76.2383 158.064 76.1721 158.072 76.1133Z" fill="#0F0A46"/>
<path fill-rule="evenodd" clip-rule="evenodd" d="M163.286 80.8065C163.271 80.8285 162.918 81.3286 162.786 81.4169C162.602 81.5346 162.411 81.5934 162.234 81.6155C161.904 81.6522 161.573 81.5787 161.278 81.2992C160.837 80.88 160.778 80.2034 161.109 79.7033V79.6959L161.117 79.6812C161.462 79.1516 162.146 78.9457 162.713 79.2252C163.294 79.5047 163.536 80.2034 163.286 80.8065ZM163.286 80.8065C163.271 80.8359 163.264 80.8653 163.249 80.8874L163.286 80.8065ZM162.102 79.1149H162.087H162.102ZM162.117 79.1149C162.411 79.1002 162.705 79.1958 162.941 79.3944C162.683 79.1737 162.404 79.1002 162.117 79.1149Z" fill="#0F0A46"/>
<path fill-rule="evenodd" clip-rule="evenodd" d="M160.337 83.1747C160.116 82.9173 159.469 84.3735 158.02 83.8881C157.77 83.8072 157.425 83.5645 157.175 83.5498C156.976 83.5424 156.983 83.7704 157.013 83.9028C157.182 84.8001 158.403 85.7415 159.337 85.4473C159.977 85.2487 160.558 83.4395 160.337 83.1747Z" fill="#0F0A46"/>
<path fill-rule="evenodd" clip-rule="evenodd" d="M164.676 78.5992C164.625 78.5551 164.022 78.077 163.919 78.0108C163.235 77.5916 162.617 77.4666 161.896 77.5916C161.756 77.6137 161.631 77.5181 161.609 77.3783C161.587 77.2386 161.683 77.1062 161.823 77.0841C162.661 76.9444 163.382 77.0768 164.183 77.5696C164.301 77.6431 164.912 78.1138 165.022 78.2168C165.132 78.3124 165.117 78.4227 165.117 78.4301C165.117 78.4963 165.088 78.5477 165.059 78.5845C165.029 78.6213 164.985 78.6581 164.926 78.6728C164.831 78.6948 164.742 78.6654 164.676 78.5992ZM164.617 78.3859C164.61 78.4154 164.61 78.4595 164.625 78.511C164.625 78.5036 164.617 78.4963 164.617 78.4889C164.617 78.4521 164.617 78.4154 164.617 78.3859ZM164.801 78.18C164.713 78.2094 164.661 78.2683 164.632 78.3492C164.654 78.2683 164.72 78.2021 164.801 78.18Z" fill="#0F0A46"/>
<path fill-rule="evenodd" clip-rule="evenodd" d="M156.755 88.0205C157.961 87.6749 159.094 88.9252 159.756 89.0502C160.116 89.1164 160.705 88.6898 160.756 88.7781C160.808 88.8663 160.366 89.5209 160.006 89.6239C159.006 89.9033 156.946 89.3959 156.623 88.8663C156.461 88.6089 156.468 88.1088 156.755 88.0205Z" fill="#0F0A46"/>
<path fill-rule="evenodd" clip-rule="evenodd" d="M162.999 77.3641C164.353 77.4523 170.428 78.129 171.399 71.5759C171.479 71.0537 171.325 69.8843 170.81 69.4504C170.339 69.0532 167.184 69.7593 167.008 68.2957C165.816 58.4257 159.381 58.7125 151.622 61.5588C148.437 62.7282 146.238 59.5583 143.164 62.7135C136.736 69.3033 142.414 79.6661 142.414 79.6661C142.414 79.6661 143.502 79.7102 144.98 80.6296C145.789 81.1297 146.429 81.6592 146.834 81.5268C147.841 81.1959 148.364 77.8421 149.18 76.2094C150.195 74.1795 151.798 71.5612 154.394 71.3479C157.086 71.1199 158.609 77.0699 162.999 77.3641Z" fill="#0F0A46"/>
<path fill-rule="evenodd" clip-rule="evenodd" d="M156.35 87.9763C155.541 86.9099 153.975 87.2041 153.364 86.8731C153.033 86.6966 152.776 85.9685 152.688 86.0053C152.6 86.042 152.622 86.8584 152.864 87.182C153.534 88.0572 155.483 88.9766 156.012 88.7559C156.284 88.6456 156.534 88.2264 156.35 87.9763Z" fill="#0F0A46"/>
<path fill-rule="evenodd" clip-rule="evenodd" d="M145.539 78.9091C145.723 79.0856 147.069 81.6965 147.223 82.0716C147.51 82.7923 148.613 83.1086 148.687 83.9176C148.885 86.0725 147.451 87.389 145.59 88.3451C144.053 89.1321 148.503 92.177 148.885 92.7359C149.003 92.9124 149.29 93.4714 148.959 93.5155C148.702 93.5523 148.429 93.111 148.304 92.9492C147.687 92.1622 146.164 92.2211 145.855 91.2723C145.377 89.7793 143.994 85.418 143.708 83.8735C143.502 82.785 141.273 81.417 142.009 79.9461C142.707 78.5413 144.443 77.85 145.539 78.9091Z" fill="#FFB1DF"/>
<path fill-rule="evenodd" clip-rule="evenodd" d="M143.877 81.505C143.892 81.5124 144.098 81.6153 144.23 81.6227C144.598 81.6374 144.914 81.3505 144.929 80.9828C144.943 80.7033 144.774 80.4533 144.531 80.343C144.23 80.2032 143.862 80.3062 143.678 80.593C143.487 80.8946 143.568 81.2991 143.877 81.505C143.877 81.505 143.884 81.5124 143.892 81.5124L143.877 81.505Z" fill="#0F0A46"/>
<path fill-rule="evenodd" clip-rule="evenodd" d="M132.44 172.798C133.735 173.843 134.021 178.829 134.316 180.329C135.728 187.5 136.765 194.759 137.713 202.004C139.251 213.771 139.846 225.583 140.015 237.446C140.089 242.455 141.053 248.743 138.64 253.376C134.264 261.805 121.518 264.872 120.761 274.014C119.989 283.428 112.56 303.66 112.56 303.66L92.9969 294.371C92.9969 294.371 114.855 242.66 115.348 238.181C116.208 230.275 100.256 203.717 96.6889 192.979C89.8932 172.526 97.3803 161.641 97.3803 161.641C97.3803 161.641 107.537 165.561 109.089 165.907C113.384 166.878 117.069 169.584 120.599 172.099" fill="#0879F9"/>
<path fill-rule="evenodd" clip-rule="evenodd" d="M152.512 102.517C152.975 103.341 160.506 107.122 161.212 118.705C161.514 123.618 159.741 128.575 158.175 133.223C155.181 142.108 151.43 150.845 145.51 157.972C143.627 160.237 140.237 167.224 137.42 168.482C136.434 168.923 96.7114 162.495 97.3807 161.642C98.5942 160.112 100.712 128.156 106.508 114.741C111.075 104.18 117.886 98.2738 126.66 98.443C131.396 98.5386 137.14 100.811 141.546 104.606C144.377 106.379 148.283 108.975 152.512 102.517Z" fill="#221A77"/>
<path fill-rule="evenodd" clip-rule="evenodd" d="M144.686 130.898C138.31 128.795 126.608 124.095 122.313 129.251C120.438 131.501 128.837 167.444 128.837 167.444C128.837 167.444 136.405 169.988 139.273 167.664C139.597 167.4 150.202 152.469 152.946 146.24C154.608 142.46 150.827 132.921 144.686 130.898Z" fill="#0F0A46"/>
<path fill-rule="evenodd" clip-rule="evenodd" d="M155.064 127.044C155.13 127.074 155.181 126.978 155.211 126.779C155.306 126.176 155.248 124.61 155.1 122.624C154.887 119.69 150.769 108.091 147.863 107.554C139.303 105.973 134.441 98.1917 127.469 102.906C124.681 104.789 125.748 105.333 124.042 108.187C122.931 110.047 114.282 112.173 113.451 114.166C112.517 116.409 112.443 122.403 111.818 124.742C111.642 125.411 109.362 135.017 116.893 132.229C117.628 131.957 123.769 130.016 124.284 129.868C126.41 129.265 128.771 128.714 130.896 128.103C136.184 126.596 149.673 125.89 155.064 127.044Z" fill="#221A77"/>
<path fill-rule="evenodd" clip-rule="evenodd" d="M117.047 118.255C116.642 118.263 112.288 146.593 113.303 159.309C114.105 169.282 146.613 158.177 151.092 156.618C152.041 156.287 156.652 154.014 159.873 154.264C162.411 154.455 164.757 153.374 167.331 154.191C167.589 154.271 169.604 154.588 168.375 152.72C167.125 150.815 164.713 148.785 162.801 147.483C157.91 144.144 154.571 148.02 152.813 148.873C149.864 150.315 126.24 150.131 126.152 148.505C125.784 141.504 135.743 126.051 137.125 121.168" fill="#FFB1DF"/>
<path fill-rule="evenodd" clip-rule="evenodd" d="M116.495 120.374C116.495 120.374 135.367 122.904 136.074 123.853C136.088 123.875 136.537 122.853 136.552 122.831L137.14 121.176C137.14 121.176 117.9 118.263 116.988 118.168" fill="#0F0A46"/>
<path fill-rule="evenodd" clip-rule="evenodd" d="M117.047 241.779L114.341 298.572C114.341 298.572 118.878 270.028 118.967 260.415C119.011 255.73 117.047 241.779 117.047 241.779Z" fill="#0F0A46"/>
<path fill-rule="evenodd" clip-rule="evenodd" d="M157.8 107.959L167.604 125.147C167.604 125.147 166.199 127.684 165.221 129.398C164.243 131.097 155.115 141.437 155.115 141.437C155.115 141.437 158.844 131.494 159.609 127.934C160.05 125.904 160.992 121.594 160.801 119.528C160.521 116.557 157.8 107.959 157.8 107.959Z" fill="#0F0A46"/>
<path fill-rule="evenodd" clip-rule="evenodd" d="M158.601 139.327C158.601 139.327 163.088 135.223 164.441 133.715C165.706 132.303 168.817 128.052 168.817 128.052L167.287 125.721C167.287 125.721 165.169 129.2 164.323 130.391C163.029 132.208 157.917 138.246 157.917 138.246L158.278 138.812L158.601 139.327Z" fill="#0F0A46"/>
<path d="M125.961 149.095L125.91 148.602C125.439 148.653 124.601 148.72 124.336 148.676C122.982 148.448 120.982 147.705 120.967 147.697L120.71 148.389C120.791 148.418 122.791 149.161 124.211 149.404C124.314 149.426 124.461 149.433 124.623 149.433C124.77 149.433 124.931 149.426 125.093 149.418C124.954 149.632 124.821 149.801 124.755 149.867C123.946 150.595 122.482 151.419 122.468 151.426L122.828 152.066C122.894 152.029 124.38 151.198 125.248 150.411C125.535 150.161 126.013 149.337 126.108 149.176L125.961 149.095Z" fill="#D57FBC"/>
<path fill-rule="evenodd" clip-rule="evenodd" d="M160.594 152.403C160.594 152.403 165.794 154.161 166.132 154.264C166.382 154.338 166.904 154.47 167.162 154.47C167.75 154.47 167.883 154.294 167.912 154.169C168.022 153.727 167.302 152.448 167.302 152.448L162.992 150.248L162.028 151.072L160.594 152.403Z" fill="#FFB1DF"/>
<path fill-rule="evenodd" clip-rule="evenodd" d="M159.55 152.676C159.55 152.676 164.75 154.434 165.088 154.537C165.338 154.611 165.86 154.743 166.118 154.743C166.706 154.743 166.838 154.566 166.868 154.441C166.978 154 166.257 152.72 166.257 152.72L161.947 150.521L160.984 151.345L159.55 152.676Z" fill="#FFB1DF"/>
<path fill-rule="evenodd" clip-rule="evenodd" d="M158.16 152.83C158.16 152.83 163.36 154.588 163.698 154.691C163.948 154.764 164.47 154.897 164.728 154.897C165.316 154.897 165.448 154.72 165.478 154.595C165.588 154.154 164.867 152.874 164.867 152.874L160.558 150.675L159.594 151.499L158.16 152.83Z" fill="#FFB1DF"/>
<path fill-rule="evenodd" clip-rule="evenodd" d="M152.438 102.238C152.438 102.238 151.107 104.275 150.54 104.761C150.129 105.114 149.224 105.724 148.731 105.952C148.393 106.107 147.672 106.32 147.304 106.364C146.826 106.423 145.855 106.327 145.392 106.21C144.745 106.048 143.546 105.445 142.958 105.121C142.127 104.665 140.516 103.26 139.722 102.753C138.949 102.26 137.427 101.253 136.618 100.841C135.824 100.429 134.154 99.7522 133.316 99.4433C132.977 99.3183 131.933 99.0094 131.933 99.0094L130.433 98.899C130.433 98.899 132.257 99.5904 132.867 99.8331C133.838 100.216 135.809 100.922 136.721 101.414C137.817 102.01 142.722 105.607 143.436 105.923C145.238 106.739 147.385 106.776 147.775 106.666C148.415 106.482 149.687 106.011 150.239 105.629C150.71 105.305 151.438 104.422 151.813 103.996C152.07 103.709 152.798 102.812 152.798 102.812L152.438 102.238Z" fill="#D57FBC"/>
</g>
</g>
<defs>
<filter id="filter0_d" x="0.120419" y="30.5815" width="534.904" height="372.198" filterUnits="userSpaceOnUse" color-interpolation-filters="sRGB">
<feFlood flood-opacity="0" result="BackgroundImageFix"/>
<feColorMatrix in="SourceAlpha" type="matrix" values="0 0 0 0 0 0 0 0 0 0 0 0 0 0 0 0 0 0 127 0"/>
<feOffset dy="25.0739"/>
<feGaussianBlur stdDeviation="27.1634"/>
<feColorMatrix type="matrix" values="0 0 0 0 0 0 0 0 0 0 0 0 0 0 0 0 0 0 0.05 0"/>
<feBlend mode="normal" in2="BackgroundImageFix" result="effect1_dropShadow"/>
<feBlend mode="normal" in="SourceGraphic" in2="effect1_dropShadow" result="shape"/>
</filter>
<filter id="filter1_d" x="245.723" y="78.1013" width="236.895" height="324.291" filterUnits="userSpaceOnUse" color-interpolation-filters="sRGB">
<feFlood flood-opacity="0" result="BackgroundImageFix"/>
<feColorMatrix in="SourceAlpha" type="matrix" values="0 0 0 0 0 0 0 0 0 0 0 0 0 0 0 0 0 0 127 0"/>
<feOffset dy="25.0739"/>
<feGaussianBlur stdDeviation="27.1634"/>
<feColorMatrix type="matrix" values="0 0 0 0 0 0 0 0 0 0 0 0 0 0 0 0 0 0 0.05 0"/>
<feBlend mode="normal" in2="BackgroundImageFix" result="effect1_dropShadow"/>
<feBlend mode="normal" in="SourceGraphic" in2="effect1_dropShadow" result="shape"/>
</filter>
<filter id="filter2_d" x="104.18" y="71.9044" width="235.474" height="330.628" filterUnits="userSpaceOnUse" color-interpolation-filters="sRGB">
<feFlood flood-opacity="0" result="BackgroundImageFix"/>
<feColorMatrix in="SourceAlpha" type="matrix" values="0 0 0 0 0 0 0 0 0 0 0 0 0 0 0 0 0 0 127 0"/>
<feOffset dy="25.0739"/>
<feGaussianBlur stdDeviation="27.1634"/>
<feColorMatrix type="matrix" values="0 0 0 0 0 0 0 0 0 0 0 0 0 0 0 0 0 0 0.05 0"/>
<feBlend mode="normal" in2="BackgroundImageFix" result="effect1_dropShadow"/>
<feBlend mode="normal" in="SourceGraphic" in2="effect1_dropShadow" result="shape"/>
</filter>
<filter id="filter3_d" x="34.4685" y="30.5815" width="244.662" height="372.01" filterUnits="userSpaceOnUse" color-interpolation-filters="sRGB">
<feFlood flood-opacity="0" result="BackgroundImageFix"/>
<feColorMatrix in="SourceAlpha" type="matrix" values="0 0 0 0 0 0 0 0 0 0 0 0 0 0 0 0 0 0 127 0"/>
<feOffset dy="25.0739"/>
<feGaussianBlur stdDeviation="27.1634"/>
<feColorMatrix type="matrix" values="0 0 0 0 0 0 0 0 0 0 0 0 0 0 0 0 0 0 0.05 0"/>
<feBlend mode="normal" in2="BackgroundImageFix" result="effect1_dropShadow"/>
<feBlend mode="normal" in="SourceGraphic" in2="effect1_dropShadow" result="shape"/>
</filter>
</defs>
</svg>
