<svg width="68" height="60" viewBox="0 0 68 60" fill="none" xmlns="http://www.w3.org/2000/svg">
<rect width="67.5349" height="60" rx="30" fill="#FDDAC3"/>
<path fill-rule="evenodd" clip-rule="evenodd" d="M20.7777 26.4863C17.767 33.5497 21.7813 41.5045 29.8099 44.1104C37.8385 46.7163 46.7163 43.1503 49.6498 36.087C52.5833 29.0236 48.569 21.0688 40.6176 18.4629C38.9193 17.8457 37.0665 17.5714 35.2137 17.5714C34.5009 17.5714 33.749 17.6406 33.0136 17.7544C32.7137 17.8008 33.0136 30 33.0136 30L20.7777 26.4863Z" fill="white"/>
<path d="M35.2136 16.5931C37.2768 16.5931 39.2556 16.911 40.9986 17.5451C49.4977 20.3305 53.8353 28.8348 50.6827 36.4256C47.5421 43.9876 38.0387 47.8229 29.4319 45.0293C20.9372 42.2721 16.598 33.9038 19.653 26.368L19.7478 26.1399L21.8073 26.8328C19.0033 33.4112 22.7625 40.7816 30.1876 43.1916C37.6611 45.6173 45.8986 42.293 48.6166 35.7484C51.3504 29.166 47.5884 21.7901 40.2006 19.3683C38.6978 18.8222 37.0013 18.5497 35.2136 18.5497C34.6998 18.5497 34.1401 18.5902 33.5558 18.6674L33.2025 18.7182L32.8245 16.7907C33.6551 16.6621 34.4625 16.5931 35.2136 16.5931Z" fill="#3B3A40"/>
<path fill-rule="evenodd" clip-rule="evenodd" d="M22.1552 17.3572C25.2886 15.1998 29.1237 14.0217 33.0334 14.0217C33.6415 14.0217 34.1345 14.4597 34.1345 15V30C34.1345 30.645 33.4441 31.1135 32.7437 30.9438L16.594 27.0307C16.0102 26.8893 15.6643 26.3557 15.8194 25.8361C16.828 22.4587 19.0781 19.4601 22.1552 17.3572ZM31.9322 28.7185V16.0141L31.6702 16.0329C28.7292 16.2689 25.8865 17.2634 23.5011 18.9058C21.1648 20.5025 19.3709 22.6907 18.3588 25.1726L18.266 25.4074L31.9322 28.7185Z" fill="#3B3A40"/>
</svg>
